<?xml version="1.0" encoding="UTF-8"?>
<svg id="Camada_2" data-name="Camada 2" xmlns="http://www.w3.org/2000/svg" viewBox="0 0 504.41 128.05">
  <defs>
    <style>
      .cls-1 {
        fill: #60cf7f;
      }

      .cls-1, .cls-2, .cls-3, .cls-4, .cls-5, .cls-6, .cls-7, .cls-8, .cls-9, .cls-10, .cls-11, .cls-12, .cls-13, .cls-14, .cls-15, .cls-16, .cls-17, .cls-18, .cls-19, .cls-20, .cls-21, .cls-22, .cls-23, .cls-24, .cls-25, .cls-26, .cls-27, .cls-28, .cls-29, .cls-30, .cls-31, .cls-32, .cls-33, .cls-34, .cls-35, .cls-36, .cls-37, .cls-38, .cls-39 {
        stroke-width: 0px;
      }

      .cls-2 {
        fill: #7da6e8;
      }

      .cls-3 {
        fill: #60df76;
      }

      .cls-4 {
        fill: #a8d5f1;
      }

      .cls-5 {
        fill: #6a5725;
      }

      .cls-6 {
        fill: #9cd0f1;
      }

      .cls-7 {
        fill: #225820;
      }

      .cls-8 {
        fill: #88c7ef;
      }

      .cls-9 {
        fill: #b4dbf2;
      }

      .cls-10 {
        fill: #dfbf60;
      }

      .cls-11 {
        fill: #dfbf5f;
      }

      .cls-12 {
        fill: #87b3ea;
      }

      .cls-13 {
        fill: #5d4c21;
      }

      .cls-14 {
        fill: #82abe9;
      }

      .cls-15 {
        fill: #209f40;
      }

      .cls-16 {
        fill: #daba5c;
      }

      .cls-17 {
        fill: #60cf80;
      }

      .cls-18 {
        fill: #48b768;
      }

      .cls-19 {
        fill: #87dfa7;
      }

      .cls-20 {
        fill: #604f22;
      }

      .cls-21 {
        fill: #a8d6f2;
      }

      .cls-22 {
        fill: #6d5a26;
      }

      .cls-23 {
        fill: #625123;
      }

      .cls-24 {
        fill: #81aee9;
      }

      .cls-25 {
        fill: #7ba5e8;
      }

      .cls-26 {
        fill: #83b0ea;
      }

      .cls-27 {
        fill: #82ace9;
      }

      .cls-28 {
        fill: #584820;
      }

      .cls-29 {
        fill: #46642a;
      }

      .cls-30 {
        fill: #48bf4d;
      }

      .cls-31 {
        fill: #78d797;
      }

      .cls-32 {
        fill: #4c5926;
      }

      .cls-33 {
        fill: #308f40;
      }

      .cls-34 {
        fill: #35c64e;
      }

      .cls-35 {
        fill: #80dca0;
      }

      .cls-36 {
        fill: #4d5826;
      }

      .cls-37 {
        fill: #544d22;
      }

      .cls-38 {
        fill: #5e4d22;
      }

      .cls-39 {
        fill: #81dca1;
      }
    </style>
  </defs>
  <g id="Camada_1-2" data-name="Camada 1">
    <g>
      <g>
        <path class="cls-25" d="M245.74,84.62c1.23-.11,2.05.7,2.95,1.34v1.79c-3.5,1.85-7.12,3.26-11.19,3.02-2.16.46-4.32.29-6.48.1.5-1.78.61-1.87,2.68-1.84,2.94.04,5.78-.68,8.67-1.06,2-.26,3.13-1.34,3.37-3.35Z"/>
        <path class="cls-8" d="M245.74,84.62c1.58,1.92.61,3.12-1.28,3.6-3.7.93-7.38,2.08-11.31,1.47-.72-.11-1.52.3-2.29.47-2.29,1.39-4.85.45-7.15.37-3.11-.11-6.35-.58-9.36-1.75-2.7-1.06-3.08-2.2-1.33-4.02.57-.43.83-1.31,1.77-1.19.95.4,1.67-.14,2.41-.61.58-.16,1.17-.32,1.75-.47.64.61,1.23.35,1.8-.12,2.33-1.04,4.77-.51,7.17-.5,1.17.56,2.34.56,3.51,0,2.4-.02,4.84-.52,7.17.49.57.49,1.15.82,1.79.12.65-.05,1.29-.07,1.77.48.72.5,1.4,1.13,2.38.63.7.01,1.19.26,1.2,1.06Z"/>
        <path class="cls-2" d="M213.02,84.76c-.85,1.05-1.26,1.98.44,2.66,2.38.96,4.84,1.4,7.35,1.89,3.38.66,6.75.14,10.05.84,2.11,1.25,4.44.24,6.63.62-5.19,1.05-10.4.65-15.61.22-3.25-.27-6.52-.65-9.41-2.37-.83-.49-1.86-1.12-1.64-2.26.2-1.02,1-1.7,2.18-1.61Z"/>
        <path class="cls-12" d="M231.41,81.86c-1.17,1.24-2.34,1.25-3.51,0,1.17,0,2.34,0,3.51,0Z"/>
        <path class="cls-14" d="M244.53,83.57c-1.39,2.06-1.72.08-2.38-.63.86-.06,1.65.17,2.38.63Z"/>
        <path class="cls-24" d="M220.74,82.36c-.35.74-.83,1.37-1.74,1.09-.49-.16-.15-.63-.06-.96.6-.04,1.2-.08,1.8-.12Z"/>
        <path class="cls-26" d="M240.38,82.46c.09.34.44.82-.05.98-.92.3-1.4-.34-1.75-1.09.6.04,1.2.08,1.79.11Z"/>
        <path class="cls-27" d="M217.19,82.96c-.61.98-1.26,1.79-2.41.61.74-.46,1.53-.7,2.41-.61Z"/>
        <path class="cls-9" d="M240.77,84.35c.53-.01.87.15.88.61,0,.12-.4.34-.62.35-.32.02-.86.15-.77-.47.03-.2.37-.36.51-.49Z"/>
        <path class="cls-4" d="M237.65,87.31c.96-.69,1.51-.18,2.34.15-.87.36-1.49.48-2.34-.15Z"/>
        <path class="cls-21" d="M244.29,86.86c-.43.07-.73.21-.92.12-.16-.07-.2-.41-.29-.63.17-.06.38-.21.49-.15.22.12.39.35.72.66Z"/>
        <path class="cls-6" d="M229.52,88.54c-.47.28-.73.5-1.03.59-.35.1-.53-.16-.41-.46.09-.23.34-.47.56-.54.17-.05.42.18.87.41Z"/>
      </g>
      <path class="cls-11" d="M278.97,81.51l.26,2.87c-.94,2.3-2.9,3.47-4.97,4.54-1.24.53-2.4,1.3-3.82,1.29-1.34-.21-2.48.46-3.69.84-.99.27-1.99.48-2.98.79-1.25.29-2.54.38-3.77.8-1.74.37-3.56.16-5.25.8-2.31.41-4.72,0-6.99.84-10.03.28-20.05.29-30.07.01-2.26-.82-4.68-.45-7-.84-1.7-.64-3.54-.44-5.28-.8-1.23-.44-2.59-.44-3.8-.97-.78-.86-1.8-.97-2.88-.9-1.33-.76-2.73-1.15-4.27-.83-2.63-.29-4.61-1.88-6.65-3.34-.53-.44-1-.93-1.43-1.47-.21-.29-.37-.6-.5-.94-.15-.54-.18-1.09-.08-1.65.16-.59.47-1.06,1.07-1.28.41-.04.81.02,1.2.16,8.25,5.79,17.87,6.96,27.5,7.99,11.74,1.25,23.52,1.25,35.23-.08,8.96-1.02,18.05-2,25.73-7.53.78-.37,1.56-.68,2.43-.28Z"/>
      <path class="cls-16" d="M277.42,79.22c.78.34,1.37.87,1.68,1.67.06.23.02.44-.13.63-.52.24-1.05.48-1.57.72-1.06-.32-2.09-.67-1.73-2.13.38-.69.93-1.05,1.75-.88Z"/>
      <path class="cls-1" d="M208.76,72.65c.73-.29.79-.95.9-1.59,1.31.73,1.83,3.71,4.19,1.46.27-.18.57-.23.89-.16.92.64,1.91.85,3,.5.31-.06.63-.08.94-.07,1.29.31,2.51.14,3.67-.48.33-.06.66-.12.98-.19,2.08,1.4,4.29.11,6.43.3.53-.04,1.05-.04,1.58-.04.88,0,1.76,0,2.64,0,.51-.02,1.03,0,1.54,0,2.19-.51,4.43.44,6.61-.25.31.06.62.12.93.18.94.73,1.98.63,3.05.38.47-.04.94-.01,1.4.09,1.08.39,2.13.09,3.2-.08.5-.02.96.13,1.41.32,2.32,1.35,2.18-1.77,3.63-1.98l.9,1.52c1.05.92,2.17,1.55,3.6.81.55-.78,1.09-1.55,1.64-2.33,1.93-.03.26,2.51,1.92,2.67.59.2,1.22.31,1.78.59.53.32,1.11.54,1.68.76.8.54,1.79.45,2.67.74,1.11.62,2.34.79,3.57,1.01.31.09.57.27.77.52.47,1,1.51,1.64,1.76,2.78-.34,1.22,1.1,1.29,1.36,2.12-5.78,5.38-13.31,6.08-20.53,7.41-11.38,2.1-22.92,1.8-34.4,1.43-9.09-.29-18.13-1.6-26.87-4.37-3.22-1.02-5.98-2.83-8.38-5.17.41-.86,1.21-1.4,1.78-2.14.67-.7,1.57-1.15,2.06-2.03.21-.25.46-.44.77-.56,1.21-.29,2.48-.37,3.6-1,.87-.31,1.86-.2,2.67-.73.42-.18.87-.26,1.3-.39.71-.27,1.37-.68,2.1-.9,1.74-.14.08-2.72,1.99-2.74l1.64,2.27c1.48,1.23,2.46-.21,3.62-.67Z"/>
      <path class="cls-32" d="M229.71,70.23c.22.28.44.56.66.84-.44.65.27,1.74-.82,2.14-2.23.23-4.41-.04-6.57-.61-.4-.27-.41-.56-.02-.85.99-1.47,1.87.2,2.84.16,1.59-.07,3.07,0,3.9-1.67Z"/>
      <path class="cls-32" d="M235.02,71.07c1.62-.83,2.72,1.89,4.4.64,1,.74,2.03-1.56,3.02.02.39.3.38.58-.02.86-2.19.2-4.38.41-6.57.61-1.09-.4-.39-1.48-.82-2.13Z"/>
      <path class="cls-37" d="M242.42,72.59c0-.29.02-.57.02-.86,3.21.56,6.56-.67,9.7.76.26.33.23.64-.06.93-.49-.06-.98-.12-1.46-.18-1.05-.36-2.06.28-3.1.09-.46-.03-.92-.06-1.38-.09-.95-.33-2.04.35-2.94-.38-.26-.09-.52-.18-.78-.27Z"/>
      <path class="cls-37" d="M222.97,71.74c0,.28.01.57.02.85-.27.08-.53.17-.8.25-1.17.62-2.45.23-3.67.4-.21.05-.42.08-.63.09-1.07-.03-2.18.13-3.11-.62-.21-.07-.43-.1-.65-.09-.33.35-.64.33-.92-.07,2.63-1.64,5.57-.15,8.29-.83.49,0,.97,0,1.46.01Z"/>
      <path class="cls-28" d="M252.08,73.43c.02-.31.04-.62.06-.93,1.07.09,2.13.39,2.29-1.32.08-.9.77-1.11,1.33-.13-1.19.85-.56,4.49-3.68,2.38Z"/>
      <path class="cls-22" d="M273.78,76.97c-1.42.69-2.67.35-3.83-.6-.12-.72.07-1.11.89-.85,1.07-.17,1.99.25,2.9.73.14.15.19.31.16.47-.03.16-.07.25-.11.25Z"/>
      <path class="cls-5" d="M260.26,73.38c-1.57,1.34-2.95,1.91-3.6-.81,1.35-.37,2.36.72,3.6.81Z"/>
      <path class="cls-28" d="M267.06,75.32c-.73.3-1.31.17-1.68-.57-.67-.63-.07-1.54-.5-2.23.58-.94,1.33-.79,1.32.15-.02,1.31,1.28,1.28,1.62,2.1-.14.33-.39.51-.76.54Z"/>
      <path class="cls-36" d="M267.06,75.32c.25-.18.5-.36.76-.54,1.01.25,2.26-.51,3.03.74-.3.28-.59.57-.89.85-1.19.26-2-.5-2.89-1.05Z"/>
      <path class="cls-28" d="M263.97,74c-2.42.22-.67-2.46-2.08-2.95.89-1.06,1.28-.66,1.4.48.07.68-.15,1.46.68,1.87.2.13.26.27.2.4-.07.13-.13.2-.2.2Z"/>
      <path class="cls-28" d="M273.78,76.97c0-.24-.01-.48-.04-.72.59-1.02,1.13-.8,1.64.06.17.5.33.99.5,1.49-1.5,2.31-1.48-.17-2.09-.66v-.18Z"/>
      <path class="cls-35" d="M263.97,74c.05-.2.05-.4,0-.6.3-.29.59-.59.89-.88,1.01.55.61,1.42.5,2.23-.61.03-1.12-.15-1.4-.75Z"/>
      <path class="cls-22" d="M195.43,90.4c-.24-.27-.48-.53-.72-.8,1.52-1,2.61.18,3.82.74-.29.41-.62.45-1,.12-.7-.02-1.4-.04-2.11-.06Z"/>
      <path class="cls-20" d="M204.28,91.94c-1.2-.02-2.4-.04-3.61-.05-.06-.23-.1-.46-.13-.69.29-.34.6-.37.94-.08,1.26.14,2.65-.32,3.72.74-.28.38-.59.41-.93.08Z"/>
      <path class="cls-23" d="M201.49,91.12c-.31.03-.63.05-.94.08-1.01-.21-2.25.5-3.01-.74.33-.04.66-.08.99-.12,1.03.11,2.15-.13,2.96.77Z"/>
      <path class="cls-28" d="M216.36,94.12c-.05-.23-.09-.46-.11-.7.27-.3.56-.32.87-.06,10.39,0,20.78,0,31.17,0,.31-.27.6-.23.87.06-.01.24-.05.47-.11.7-6.68.05-13.35.1-20.03.15-4.24,1.5-8.46,1.7-12.66-.15Z"/>
      <path class="cls-13" d="M249.15,93.42c-.29-.02-.58-.04-.87-.06,2.1-1.43,4.48-.38,6.69-.75.32-.26.62-.23.91.06-.02.23-.06.47-.12.69-2.2.02-4.41.03-6.61.05Z"/>
      <path class="cls-13" d="M217.12,93.36c-.29.02-.58.04-.87.06-2.22-.43-4.64.85-6.73-.74.28-.31.59-.31.91-.07,2.22.37,4.6-.68,6.69.75Z"/>
      <path class="cls-38" d="M210.42,92.61c-.3.02-.61.04-.91.07-1.73-.36-3.67.77-5.23-.74.31-.03.62-.05.93-.08,1.73.29,3.63-.54,5.21.75Z"/>
      <path class="cls-38" d="M255.88,92.68c-.3-.02-.6-.04-.91-.06,1.59-1.3,3.48-.47,5.21-.75.33-.25.64-.23.93.07-.02.23-.07.47-.12.7-1.7.01-3.41.03-5.11.04Z"/>
      <path class="cls-16" d="M189.34,80.02c-.3,1.07-1.07,1.5-2.13,1.52-.25-.01-.49-.02-.74-.03,0,0-.16.03-.16.03-.36-.69-.03-1.28.3-1.86.31-.42.71-.7,1.24-.78.77,0,1.23.44,1.49,1.12Z"/>
      <path class="cls-20" d="M261.12,91.94c-.31-.02-.62-.05-.93-.07,1.07-1.07,2.46-.61,3.72-.75.34-.29.66-.26.94.08-1.02,1.39-2.5.45-3.74.74Z"/>
      <path class="cls-22" d="M270.14,89.7c-.48,1.06-1.45.67-2.26.76-.38.35-.71.31-1-.11,1-.66,1.98-1.4,3.26-.64Z"/>
      <path class="cls-23" d="M266.88,90.35c.33.04.67.08,1,.11-.05.23-.1.46-.16.68-.95.02-1.91.03-2.86.05-.31-.03-.63-.05-.94-.08.81-.92,1.93-.66,2.96-.77Z"/>
      <path class="cls-15" d="M273.79,77.15c.7.21,1,1.67,2.09.66.52.47,1.03.94,1.55,1.41-.46.3-.92.6-1.38.9-1.19-.66-2.65-1.12-2.26-2.97Z"/>
      <path class="cls-28" d="M213.21,72.56c.31.02.61.04.92.07-2.98,3.69-3.51.45-4.48-1.56.53-1,1.24-.78,1.31.1.13,1.69,1.19,1.43,2.25,1.39Z"/>
      <path class="cls-22" d="M195.45,76.37c-1.16.95-2.41,1.29-3.83.6-.16-.25-.15-.49.05-.72.9-.49,1.83-.88,2.9-.73.81-.25,1.01.14.88.85Z"/>
      <path class="cls-5" d="M208.76,72.65c-1.05,1.08-1.8,3.7-3.62.67,1.26.07,2.27-1.21,3.62-.67Z"/>
      <path class="cls-28" d="M199.87,75.53c-.51-.07-1.02-.14-1.52-.21-.36-.02-.61-.2-.75-.53.34-.83,1.65-.79,1.62-2.1-.02-.94.73-1.12,1.31-.16-.36.97.24,2.15-.66,3Z"/>
      <path class="cls-28" d="M203.5,71.06c-.99.65-.56,1.68-.66,2.56-.15,1.42-.86.55-1.41.38-.2-.13-.26-.26-.2-.39.06-.13.13-.2.19-.2.84-.4.62-1.19.69-1.87.11-1.15.5-1.53,1.39-.48Z"/>
      <path class="cls-28" d="M191.67,76.25c-.03.24-.05.48-.05.72,0,0,0,.18,0,.18-.66.79-.82,3.02-2.52.88-.04-.39.1-.7.41-.94.73-.26.6-.94.74-1.48.58-.01,1.19-.1,1.43.65Z"/>
      <path class="cls-36" d="M197.59,74.78c.25.18.5.35.75.53-.89.55-1.71,1.31-2.89,1.05-.29-.28-.59-.57-.88-.85.76-1.24,2.02-.47,3.02-.73Z"/>
      <path class="cls-35" d="M201.42,73.41c-.04.2-.04.39,0,.59-.29.74-.85,1.21-1.56,1.53.31-.98-.56-2.22.66-3,.3.3.6.59.9.89Z"/>
      <path class="cls-18" d="M233.45,87.44c-.5.78-1,.78-1.5,0-1-.52-1.47.55-2.23.74-1.68.86-1.24-1.46-2.3-1.52-1.03-.6-1.43.59-2.18.78-1.36,1.49-1.47-.69-2.3-.78-.74-.52-1.46-.3-2.18.03-1.29,1.38-1.68.05-2.25-.74-.74-.65-1.48.6-2.22.01-2.86.76-5.62.46-8.28-.79-1.1-.84-2.54.29-3.62-.64-.59-1.35-2.76.38-3.04-1.55-.46-.86.36-1.07.76-1.51l-.05.03c1-1.14,1.96.65,2.95.04.7-1.17,2.85.48,3.1-1.57,1.22-.61,1.68,1.55,2.93.8.23-2.04,2.33-.35,3-1.5.97-.43,1.51.38,2.21.74.48-.51.96-1.01,1.43-1.52.87.36,1.51,1.04,2.3,1.52l.81-.78c.74-.52,1.47.74,2.2,0l-.05.03c.53-.44,1.06-.44,1.56.05,1.41.54,2.52-.34,3.71-.79,2.98.09,5.95.09,8.93,0,1.24.26,2.48.53,3.71.79.51-.49,1.03-.49,1.56-.05l-.05-.03c.74.74,1.47-.53,2.2,0,.27.26.54.52.81.78.79-.48,1.43-1.16,2.3-1.52.48.51.96,1.01,1.43,1.52.7-.36,1.24-1.18,2.21-.74.67,1.15,2.78-.54,3,1.5,1.26.75,1.72-1.4,2.93-.8.26,2.05,2.4.4,3.11,1.57.99.61,1.95-1.19,2.95-.04l-.05-.03c.39.43,1.22.65.76,1.51-.4,1.69-2.11.78-3,1.5-1.07,1.03-2.56-.16-3.66.69-2.66,1.25-5.42,1.55-8.28.79-.74.59-1.48-.66-2.22-.01-.57.8-.96,2.12-2.25.74-.72-.33-1.45-.56-2.18-.03-.82.09-.94,2.26-2.3.78-.79-.13-1.14-1.53-2.23-.74-.67.62-.65,2.26-2.24,1.49-.76-.19-1.23-1.26-2.23-.74Z"/>
      <path class="cls-15" d="M237.17,78.54c-2.98.91-5.95.91-8.93,0,2.98-1.08,5.95-1.08,8.93,0Z"/>
      <path class="cls-15" d="M202.11,81.48c-.25.5-.5,1.01-.76,1.51-1.05.14-2.12.83-3.12-.14-.41-.4-.04-.65.14-.93,1.07-1.59,2.53,0,3.74-.45Z"/>
      <path class="cls-15" d="M264.05,82.98c-.25-.5-.5-1-.76-1.51.25,0,.5,0,.74.02,1.01.07,2.18-.95,3,.42.17.29.55.53.14.93-1.01.96-2.07.28-3.12.14Z"/>
      <path class="cls-39" d="M252.81,88.94c-1.34.96-2.3.96-3.64,0,1.34-.96,2.3-.96,3.64,0Z"/>
      <path class="cls-39" d="M216.24,88.79c-1.29,1.22-2.26,1.02-3.48.32,1-1.21,2.01-1.07,3.48-.32Z"/>
      <path class="cls-15" d="M187.98,79.21c.44-.48.88-.96,1.32-1.44,1.3,1.72,1.5-.59,2.31-.62.61,2.03-1.5,1.93-2.27,2.87-.46-.27-.91-.54-1.37-.81Z"/>
      <path class="cls-15" d="M257.39,85.18c.74-2.77,2.57.2,3.66-.69-.91,1.85-2.3,1.18-3.66.69Z"/>
      <path class="cls-15" d="M204.39,84.54c1.1.85,2.87-2.13,3.62.64-1.34.49-2.7,1.15-3.62-.64Z"/>
      <path class="cls-18" d="M273.42,81.08c-.93,1.32-1.81,1.32-2.9.84.56-1.41,1.56-1.21,2.9-.84Z"/>
      <path class="cls-10" d="M214.78,72.72c1.08-.03,2.27-.57,3.11.62-1.25.86-2.48,1.65-3.11-.62Z"/>
      <path class="cls-18" d="M191.85,81.21c1.43-.57,2.32-.6,3.09.63-1.11.66-1.95.46-3.09-.63Z"/>
      <path class="cls-29" d="M231.19,71.89c1.01,0,2.01,0,3.02,0,.4.5.43.96-.16,1.34-.9,0-1.8,0-2.71,0-.59-.39-.56-.84-.16-1.35Z"/>
      <path class="cls-10" d="M218.52,73.25c1.11-1.17,2.41-.59,3.66-.4-1.05,1.73-2.33,1.34-3.66.4Z"/>
      <path class="cls-10" d="M243.2,72.86c1.03-.25,2.08-.71,2.94.38-1.05.45-2.24,1.93-2.94-.38Z"/>
      <path class="cls-15" d="M225.24,87.44c.47-.67.48-1.79,1.53-1.88.58-.05.63.61.65,1.1-.64.5-1.02,1.73-2.18.78Z"/>
      <path class="cls-15" d="M237.93,86.7c.18-.39.36-1.11.55-1.12,1.19-.02,1.17,1.18,1.68,1.86-1.15.97-1.54-.34-2.23-.74Z"/>
      <path class="cls-10" d="M247.51,73.33c1.01-1.07,2.04-1.13,3.1-.09-1.02.55-2.03,1.48-3.1.09Z"/>
      <path class="cls-15" d="M211.05,80.78c-1.48,1.57-1.92-.67-2.93-.8,1.68-2.3,1.78,1.17,2.93.8Z"/>
      <path class="cls-15" d="M257.29,79.98c-1.02.12-1.45,2.37-2.93.8,1.15.37,1.25-3.1,2.93-.8Z"/>
      <path class="cls-15" d="M205.01,81.55c-1,1.34-1.96-.4-2.95-.04.08-.46-.99-1.52.51-1.22.87.17,1.63.83,2.45,1.27Z"/>
      <path class="cls-15" d="M263.34,81.51c-.99-.35-1.95,1.38-2.95.04.81-.44,1.58-1.1,2.45-1.27,1.49-.29.43.76.5,1.22Z"/>
      <path class="cls-15" d="M220.76,86.7c.71-1.02,1.42-2.49,2.18-.03-.72.59-1.45.5-2.18.03Z"/>
      <path class="cls-15" d="M242.46,86.67c.77-2.46,1.47-.98,2.18.03-.73.46-1.46.56-2.18-.03Z"/>
      <path class="cls-15" d="M246.89,85.96c.75-1.22,1.48-.16,2.22.01-.75,2.13-1.48.48-2.22-.01Z"/>
      <path class="cls-15" d="M233.45,87.44c1.28-1.35,1.67-.03,2.23.74-1.15.97-1.54-.34-2.23-.74Z"/>
      <path class="cls-15" d="M251.35,79.28c-.74.25-1.47.49-2.21.74.45-.79.82-1.7,1.93-1.68.1,0,.19.61.28.94Z"/>
      <path class="cls-15" d="M216.27,80.02c-.74-.25-1.47-.49-2.21-.74.09-.33.18-.94.28-.94,1.11-.02,1.48.89,1.93,1.68Z"/>
      <path class="cls-35" d="M234.05,73.23c.05-.45.1-.9.16-1.35.27-.27.54-.55.81-.82.92.47.58,1.42.82,2.14-.6,0-1.2.02-1.79.03Z"/>
      <path class="cls-15" d="M242.44,79.28c-.52.02-1.04.03-1.56.05.05-.73.07-1.74.9-1.74,1.05,0,.42,1.11.66,1.69Z"/>
      <path class="cls-15" d="M220,80.02c-1.12.02-1.83-.56-2.3-1.52,1.56-.69,1.7.77,2.3,1.52Z"/>
      <path class="cls-15" d="M216.29,85.97c.74-.18,1.47-1.23,2.22-.01-.74.49-1.47,2.14-2.22.01Z"/>
      <path class="cls-15" d="M244.6,79.24c-.73.28-1.46,1.27-2.2,0,.74.64,1.46-2.75,2.2,0Z"/>
      <path class="cls-15" d="M224.52,79.33c-.52-.02-1.04-.03-1.56-.05.24-.58-.4-1.7.66-1.69.84,0,.86,1.01.9,1.74Z"/>
      <path class="cls-15" d="M223.01,79.25c-.74,1.26-1.47.27-2.2,0,.75-2.78,1.47.75,2.2,0Z"/>
      <path class="cls-15" d="M229.72,88.19c.57-.78.95-2.09,2.23-.74-.69.41-1.08,1.71-2.23.74Z"/>
      <path class="cls-35" d="M231.19,71.89c.05.45.1.9.16,1.35-.6,0-1.2-.02-1.79-.03.25-.72-.09-1.67.83-2.14.27.27.54.55.81.82Z"/>
      <path class="cls-15" d="M247.7,78.5c-.46.96-1.18,1.54-2.3,1.52.6-.75.73-2.21,2.3-1.52Z"/>
      <path class="cls-7" d="M100.91,115.93c-6.63-.01-13.26-.02-19.89-.03-.03-1.32-.06-2.64-.08-3.96.17-.21.33-.43.5-.64,1.14-.97,2.54-.86,3.9-.92,1.38-.37,2.77-.02,4.16-.12,3.79-.32,7.61-1.02,11.22.91,1.34,1.15,1.5,2.55.82,4.1-.21.22-.41.44-.62.67Z"/>
      <path class="cls-7" d="M.89,68.03c0-2.66-.01-5.31-.02-7.97-1.07-1.39-1.2-2.8-.12-4.26,1.42-1.05,2.87-1.05,4.35-.12,1.27,1.09,1.58,2.53,1.5,4.11.35,2.55.72,5.11.06,7.67-.12,1.39.06,2.86-.95,4.04-.22.17-.45.34-.68.51-3.17.51-4.34-1.03-4.15-4Z"/>
      <path class="cls-7" d="M80.94,111.94c-4.07,0-8.15-.13-12.21.06-3.09.15-4.13-1.2-3.77-4.05.17-.21.33-.43.5-.64,1.14-.97,2.54-.86,3.9-.91,1.39-.38,2.79-.02,4.19-.12,2.74-.44,5.43-.6,7.72,1.42.99,1.52.76,2.94-.36,4.29l.03-.03Z"/>
      <path class="cls-7" d="M52.97,103.96c-2.75,0-5.51-.13-8.25.05-3.1.21-4.08-1.24-3.73-4.05.16-.21.32-.42.48-.63,1.1-.93,2.43-.87,3.75-.89,1.32-.32,2.64-.16,3.96,0,1.42-.1,2.76.06,3.91,1,1.07,1.19,1.19,2.5.49,3.92-.2.2-.4.4-.6.59Z"/>
      <path class="cls-7" d="M64.96,107.95c-2.75,0-5.51-.13-8.25.05-3.1.21-4.08-1.23-3.73-4.05,0,0-.03.03-.03.03,1.06-1.11,2.34-1.67,3.88-1.56,1.45-.29,2.9-.25,4.36-.04,1.57-.12,3.02.14,4.16,1.36.94,1.52.69,2.91-.42,4.23l.03-.03Z"/>
      <path class="cls-7" d="M9.03,80.01c-6.93.14-2.89-5.21-4-7.98,0,0-.05.05-.05.05,1.23-1.06,2.56-1.38,4.05-.57,1.23,1.02,1.62,2.37,1.48,3.91,0,1.41.18,2.86-.82,4.07-.22.17-.45.35-.67.52Z"/>
      <path class="cls-7" d="M25.01,91.98c-1.6,0-3.21-.09-4.81.03-3.11.22-3.33-1.72-3.18-4.02.14-.19.29-.39.43-.59,1.01-.83,2.21-.93,3.45-.87,1.23-.06,2.45-.1,3.59.49.44.24.81.57,1.11.97.64,1.18.68,2.35-.03,3.52-.19.16-.38.31-.57.47Z"/>
      <path class="cls-7" d="M33,95.97c-1.6,0-3.21-.09-4.81.03-3.1.22-3.34-1.72-3.18-4.02,0,0-.03.03-.03.03,1.06-1.1,2.32-1.67,3.87-1.51,1.46-.09,2.92-.12,4.16.87,1.16,1.18,1.3,2.52.61,3.99-.2.2-.41.41-.61.61Z"/>
      <path class="cls-7" d="M40.99,99.97c-1.6,0-3.21-.09-4.81.03-3.1.22-3.34-1.72-3.18-4.02,0,0-.03.03-.03.03,1.11-1.19,2.5-1.65,4.1-1.52,1.59-.15,3.09,0,4.28,1.24.97,1.52.73,2.93-.39,4.27l.03-.03Z"/>
      <path class="cls-7" d="M13.03,84c-3.1.44-4.44-.89-3.99-3.99,0,0-.03.03-.03.03.93-.99,2.04-1.35,3.37-.94.48.18.88.48,1.2.87.7,1.18.74,2.36.03,3.55-.19.16-.38.32-.57.48Z"/>
      <path class="cls-7" d="M17.02,87.99c-3.11.44-4.44-.89-4-3.99,0,0-.03.03-.03.03,1.05-1.01,2.25-1.37,3.65-.8.49.26.87.63,1.14,1.11.59,1.41.22,2.61-.79,3.68l.03-.03Z"/>
      <path class="cls-7" d="M340.55,123.91c.61,4.05-1.98,4.04-4.89,4.04-28.16-.05-56.33-.03-84.49-.02-2.15,0-4.3.08-6.46.12-26.61-.05-53.22-.1-79.83-.15-1.11-1.04-1.41-2.25-.84-3.68.27-.51.64-.91,1.13-1.22,1.3-.82,2.77-.61,4.19-.7,1.49-.42,3,.09,4.49-.19,1.82-.33,3.65-.28,5.48-.28,48.87,0,97.75,0,146.62,0,1.83,0,3.66-.06,5.47.26,1.48.3,3.01-.24,4.48.19,1.41.14,2.91-.07,4.13.94.18.22.35.45.53.68Z"/>
      <path class="cls-7" d="M164.82,123.92c-11.96,0-23.93,0-35.89,0-.02-1.33-.04-2.66-.06-3.99.17-.22.35-.43.52-.66,1.18-.99,2.63-.83,4.02-.94,1.44-.43,2.91.08,4.36-.17,7.53-.61,15.06-.23,22.58-.23,1.68,0,3.25.37,4.56,1.51,1.18,1.53,1.05,3.03-.13,4.5l.03-.03Z"/>
      <path class="cls-7" d="M128.87,119.92c-8.05,0-16.11-.1-24.16.07-3.13.07-4.2-1.15-3.8-4.06,0,0-.03.03-.03.03,1.09-1.18,2.47-1.64,4.05-1.58,1.5-.35,3.02-.16,4.54-.2,6.54.06,13.2-1.75,19.54,1.3,1.15,1.53,1.01,3.02-.16,4.47l.03-.03Z"/>
      <path class="cls-3" d="M128.78,116.09c-6.61-.1-13.22-.19-19.83-.29-1.36-1.28-2.75-2.48-4.81-2.31-1.36.12-2.36-.58-3.32-1.39-3.95-.1-7.9-.19-11.84-.29-1.36-1.28-2.75-2.48-4.81-2.31-1.36.12-2.36-.58-3.32-1.39-2.62-.1-5.23-.19-7.85-.29-1.36-1.28-2.75-2.48-4.81-2.31-1.36.12-2.36-.58-3.32-1.39-1.28-.1-2.57-.19-3.85-.29-1.36-1.28-2.75-2.48-4.81-2.31-1.36.12-2.36-.58-3.32-1.39-1.28-.1-2.57-.19-3.85-.29-1.36-1.28-2.75-2.48-4.81-2.31-1.36.12-2.36-.58-3.32-1.39-1.27-.08-2.53-.16-3.8-.24-1.54-1.09-2.65-2.66-4.19-3.75-1.27-.08-2.53-.16-3.8-.24-1.53-1.12-2.7-2.63-4.15-3.83l.08-.11c-1.31-1.37-2.7-2.59-4.8-2.42-1.36.08-2.34-.62-3.21-1.54h0c-1.36-1.3-2.69-2.63-4-3.99h0c-1.34-1.33-2.77-2.57-3.92-4.08-.06-1.25-.13-2.51-.19-3.76-1.11-1.52-2.64-2.65-3.75-4.17,0-2.62,0-5.24,0-7.86.96-1.05,2.12-1.26,3.43-.79,1.75.91,2.34,3.64,4.98,3.16,1.22-.15,2.34.13,3.38.76,2.33,2.73,5.02,5.11,7.61,7.58.37.23.71.51,1.01.84.81,1.47,1.7,2.88,3.4,3.5.35.25.64.55.91.88.69,1.76,1.93,2.65,3.87,2.44,1.17-.12,2.24.17,3.23.77,1.44,1.2,2.01,3.66,4.62,3.19,1.22-.15,2.33.14,3.36.78,1.48,1.28,2.16,3.82,4.92,3.07,2.33-.45,4.6-.32,6.76.73,1.74,1.13,2.33,4.13,5.32,3.21,3.52-.31,7.04-.73,10.44.65,1.92.95,2.4,4.25,5.48,3.34,3.55-.3,7.1-.75,10.53.66,1.91,1.01,2.44,4.35,5.59,3.3,4.79-.19,9.59-.9,14.3.64,1.98,1.02,2.57,4.45,5.8,3.32,7.35-.07,14.72-1.04,22.02.59,2.08.98,2.68,4.55,5.99,3.38,9.98.15,19.98-.98,29.93.59,2.07,1.15,2.92,4.54,6.26,3.35,22.46-.42,44.92-.17,67.37-.16,27.11.01,54.23-.27,81.33.15,3.24,1.15,4.26-1.97,6.24-3.27,4.81-1.7,9.78-.6,14.67-.74,5.09-.14,10.19-.24,15.27.07,3.24,1.19,3.97-2.21,5.98-3.3,7.3-1.73,14.69-.71,22.04-.68,3.15,1.13,3.89-2.1,5.79-3.24,4.7-1.63,9.52-.89,14.31-.72,3.05,1.02,3.79-2.02,5.58-3.22,3.43-1.49,6.99-1.03,10.54-.75,3.04.97,3.64-2.17,5.47-3.26,3.4-1.46,6.94-1.03,10.45-.73,2.93.94,3.68-1.85,5.31-3.13,2.16-1.11,4.43-1.24,6.76-.81,2.71.79,3.52-1.59,4.93-2.97,1.02-.66,2.13-.96,3.35-.84,2.58.5,3.25-1.84,4.63-3.13,1.01-.66,2.11-.95,3.31-.85,1.76.12,3.08-.49,3.74-2.23.26-.38.59-.71.94-1.01,1.53-.67,2.62-1.77,3.28-3.3.28-.37.62-.69,1-.97,2.88-2.24,5.24-5.01,7.74-7.64,1.05-.67,2.2-.96,3.44-.83,2.74.5,3.32-2.45,5.23-3.29,1.42-.45,2.72-.31,3.88.69,1.69,2.3,1.63,4.78.73,7.33-.65,2.1-3.96,2.29-3.65,5.08.07,1.17-.03,2.32-.62,3.37-.98,1.73-3.43,2.06-3.99,4.2-.26.37-.57.69-.92.97-1.48.66-2.57,1.71-3.25,3.2-.31.36-.66.65-1.07.89-1.05.56-2.19.7-3.35.62-1.73-.06-2.83.79-3.43,2.37-.25.36-.56.67-.9.95-2.14.53-2.61,2.84-4.19,3.97-1.02.6-2.12.86-3.29.72-2.66-.46-3.14,2.19-4.7,3.3-1.11.69-2.32.78-3.57.68-1.2.05-2.4.41-3.61.09-2.72-.62-3.23,2.09-4.79,3.21-1.11.69-2.33.79-3.58.69-1.2.05-2.4.41-3.61.09-2.72-.62-3.23,2.1-4.8,3.22-1.11.69-2.34.78-3.6.68-1.22.08-2.44.4-3.67.1-2.83-.59-3.2,2.48-5.02,3.4-2.28,1.09-4.65,1.03-7.06.61-1.28-.08-2.55.33-3.83.02-2.93-.64-3.3,2.61-5.25,3.46-3.53,1.33-7.14.86-10.74.55-1.32-.13-2.64.31-3.95,0-3.01-.65-3.37,2.79-5.47,3.55-6.09,1.34-12.23.67-18.36.48-1.36-.18-2.72.3-4.08-.02-3.07-.69-3.45,2.85-5.62,3.58-8.66,1.33-17.36.57-26.04.46-1.29-.27-2.6.23-3.89-.06-2.22-.51-3.71.77-5.17,2.13-34.59.05-69.19.12-103.78.14-18.63,0-37.25-.09-55.88-.14-1.36-1.28-2.75-2.48-4.81-2.31-1.36.12-2.36-.58-3.32-1.39-9.27-.1-18.55-.19-27.82-.29-1.36-1.28-2.75-2.48-4.81-2.31-1.36.12-2.36-.58-3.32-1.39Z"/>
      <path class="cls-33" d="M80.84,108.11c1.33-.01,2.66-.03,4-.04,1.13,1.21,1.22,2.47.16,3.78-1.36.04-2.73.08-4.09.13-.02-1.29-.04-2.58-.06-3.87Z"/>
      <path class="cls-30" d="M84.99,111.85c-.05-1.26-.1-2.52-.16-3.78,2.99-.53,4.38.71,4.13,3.74-1.33.01-2.65.02-3.98.04Z"/>
      <path class="cls-33" d="M100.81,112.1c1.33-.01,2.66-.03,4-.04,1.13,1.21,1.22,2.47.16,3.78-1.36.04-2.72.08-4.09.12-.02-1.29-.04-2.58-.07-3.86Z"/>
      <path class="cls-30" d="M9.07,60.09c-1.3.02-2.6.03-3.9.05-.04-1.36-.08-2.72-.12-4.09,0,0-.05.07-.05.07,1.19-1.06,2.49-1.38,3.95-.59,1.27,1.12,1.37,2.46.72,3.93-.2.21-.4.42-.6.63Z"/>
      <path class="cls-30" d="M5.17,67.99c3.08-.25,4.26,1.2,3.75,4.17-1.31-.03-2.62-.06-3.93-.08.06-1.36.12-2.72.18-4.08Z"/>
      <path class="cls-33" d="M64.86,104.12c1.33-.01,2.66-.03,4-.04,1.13,1.21,1.22,2.47.16,3.78-1.36.04-2.73.08-4.09.13-.02-1.29-.04-2.58-.06-3.87Z"/>
      <path class="cls-30" d="M69.01,107.85c-.05-1.26-.1-2.52-.16-3.78,2.99-.53,4.38.71,4.13,3.74-1.33.01-2.65.02-3.98.04Z"/>
      <path class="cls-33" d="M40.89,96.13c1.33-.01,2.66-.03,4-.04,1.13,1.21,1.22,2.47.16,3.78-1.36.04-2.73.08-4.09.13-.02-1.29-.04-2.58-.06-3.87Z"/>
      <path class="cls-30" d="M45.05,99.87c-.05-1.26-.1-2.52-.16-3.78,2.99-.53,4.38.71,4.13,3.74-1.33.01-2.65.02-3.98.04Z"/>
      <path class="cls-33" d="M52.88,100.12c1.33-.01,2.66-.03,4-.04,1.13,1.21,1.22,2.47.16,3.78-1.36.04-2.73.08-4.09.13-.02-1.29-.04-2.58-.06-3.87Z"/>
      <path class="cls-30" d="M57.03,103.86c-.05-1.26-.1-2.52-.16-3.78,2.99-.53,4.38.71,4.13,3.74-1.33.01-2.65.02-3.98.04Z"/>
      <path class="cls-33" d="M9.11,75.92c3.02-.27,4.33,1.08,3.92,4.09-1.34.01-2.69.02-4.03.03.04-1.37.08-2.75.12-4.12Z"/>
      <path class="cls-33" d="M17.02,84c1.3.04,2.6.08,3.9.12,1.13,1.21,1.22,2.47.16,3.78-1.36.04-2.73.08-4.09.13.01-1.34.02-2.68.03-4.03Z"/>
      <path class="cls-30" d="M21.08,87.9c-.05-1.26-.1-2.52-.16-3.78,3.08-.54,4.39.79,4.11,3.84-1.32-.02-2.63-.04-3.95-.06Z"/>
      <path class="cls-33" d="M24.95,88.07c3.08-.56,4.37.82,4.15,3.83-1.37.04-2.75.08-4.12.12,0-1.32-.02-2.63-.03-3.95Z"/>
      <path class="cls-33" d="M32.9,92.14c3.14-.7,4.38.73,4.19,3.75-1.37.04-2.75.08-4.12.12-.02-1.29-.04-2.58-.06-3.87Z"/>
      <path class="cls-33" d="M13.03,80.01c3.06-.4,4.4.93,4,4-1.34.01-2.69.02-4.03.03.01-1.34.02-2.68.03-4.03Z"/>
      <path class="cls-7" d="M137,4.2q-.41,7.97,7.43,7.97c1.47,0,2.94,0,4.4.01.2.2.39.39.59.59.68,1.42.51,2.71-.57,3.87-1.14,1.02-2.53,1.11-3.95,1.07-1.37.25-2.74.27-4.11.08-1.37.23-2.74.15-4.11-.05-1.39.09-2.74-.01-3.91-.89-2.06-2.04-1.78-4.71-1.87-7.24-.07-1.79.01-3.57-1.73-4.71-.1-.23-.21-.46-.31-.69-.4-2.87.57-4.11,3.74-4.1,3.09,0,4.68.85,4.4,4.1Z"/>
      <path class="cls-7" d="M88.75,12.18c.05-2.63.25-5.26.12-7.88-.13-2.77.52-4.24,3.76-4.19,3.01.05,4.83.64,4.25,4.09-.11.24-.22.48-.33.72-2.33,1.64-1.53,4.11-1.67,6.32-.21,3.22.62,6.62-1.76,9.45-1.22,1-2.65,1.11-4.14.99-1.5.1-2.97.08-4.21-.98-1.03-1.16-1.18-2.48-.73-3.92,1.03-2.07,3.53-2.65,4.7-4.6Z"/>
      <path class="cls-7" d="M65.04,20.19c.16,0,.32-.01.48-.01q7.65-.07,7.24-7.99c.04-6.67,5.14-3.1,8.05-3.97,1.12,1.06,1.32,2.3.78,3.7-3.13,2.17-2.75,5.6-3.13,8.77.14,1.48-.28,2.76-1.3,3.84-2.28,1.76-4.86,1.77-7.52,1.27-1.41-.17-2.89.14-4.2-.63-.51-.28-.91-.68-1.21-1.18-.63-1.45-.35-2.72.8-3.81Z"/>
      <path class="cls-7" d="M104.78,8.21c.05,2.65.09,5.31.14,7.96-3.65,2.2-4.99.28-5.54-3.09.06-1.48-.25-3.02.79-4.32.23-.19.46-.38.69-.56,1.31,0,2.61,0,3.92,0Z"/>
      <path class="cls-7" d="M4.87,52.08c.09-1.31.17-2.62.26-3.93,1.3-.01,2.6-.03,3.9-.04.21.17.42.33.64.49.95,1.14.87,2.5.83,3.86.09,1.44-.23,2.71-1.58,3.5-1.31.05-2.62.1-3.93.15-.04-1.35-.08-2.69-.12-4.04Z"/>
      <path class="cls-7" d="M124.82,12.19c-.04-1.33-.08-2.66-.13-3.99-.2-2.99.97-4.54,4.17-3.99l-.04-.04c2.18,2.34,2.53,4.96.69,7.55-1.21,1.7-2.98,1.8-4.7.47Z"/>
      <path class="cls-7" d="M9.03,48.11c.02-1.32.03-2.64.05-3.95,0,0-.02.02-.02.02.92-1.07,2.05-1.38,3.39-.95.49.2.89.52,1.2.94.69,1.24.7,2.49.08,3.75-.29.45-.68.79-1.16,1.03-1.38.51-2.55.14-3.56-.86l.03.03Z"/>
      <path class="cls-7" d="M96.88,4.2c3.15-.48,4.48.85,3.99,4,0,0,.05-.05.05-.05-1.36,1.11-2.77,1.38-4.27.28-1.08-1.5-.85-2.92.28-4.27l-.04.04Z"/>
      <path class="cls-7" d="M424.48,12.19c-.61-3.44,1.14-4.05,4.19-4.11,3.2-.05,4.1,1.23,3.8,4.1-.12,1.14.1,2.32-.04,3.46-.42,3.31.67,5.08,4.29,4.51,3.23-.51,4.12,1.15,3.7,4-.18.22-.35.44-.52.66-1.19,1-2.66.82-4.05.94-2.61.52-5.14.51-7.44-1.07-1.06-.97-1.52-2.19-1.48-3.61-.64-2.78.67-6.07-2.17-8.27-.09-.21-.18-.42-.27-.63Z"/>
      <path class="cls-7" d="M408.44,4.2c-.32-2.83.56-4.15,3.79-4.11,3.1.04,4.71.82,4.4,4.11-.05,2.77.07,5.57-.21,8.32-.34,3.29,1.32,3.98,4.06,3.67.2.2.4.41.6.61.69,1.46.54,2.8-.61,3.99-1.25,1.01-2.73.96-4.21.9-1.51.16-2.92-.05-4.12-1.07-2.34-2.88-1.66-6.32-1.61-9.58.04-2.57-.15-4.93-2.09-6.83Z"/>
      <path class="cls-7" d="M472.41,32.15c-.62-3.44,1.15-4.06,4.2-4.1,3.2-.05,4.07,1.24,3.8,4.11-.19,2.02-.21,3.82,2.72,4.21,2,.27.98,2.43,1.23,3.77-.17.22-.35.44-.52.66-2.34,1.49-4.72,1.33-7.11.14-3.01-1.88-1.08-6.21-4.02-8.13-.1-.22-.19-.44-.29-.65Z"/>
      <path class="cls-7" d="M440.42,24.16c4.1,0,8.22.19,12.31-.08,3.26-.21,4.06,1.25,3.68,4.06-.17.22-.33.43-.49.65-1.13.97-2.52.87-3.87.92-2.39.51-4.79.53-7.18.03-1.36-.06-2.76.13-4.01-.63-.49-.29-.87-.69-1.15-1.18-.63-1.44-.28-2.69.74-3.8l-.03.03Z"/>
      <path class="cls-7" d="M456.41,28.14c2.78,0,5.57.2,8.33-.05,3.27-.3,4.02,1.27,3.65,4.05-.16.21-.32.42-.48.64-1.12.96-2.5.87-3.84.91-1.37.35-2.75.08-4.12.01-1.55.16-2.91-.24-3.99-1.4-.89-1.5-.64-2.88.46-4.16h0Z"/>
      <path class="cls-7" d="M484.35,40.14c1.46,0,2.95.13,4.39-.05,3.26-.42,3.97,1.28,3.62,4.02-.17.22-.34.44-.52.66-1.2.99-2.63.85-4.04.84-1.55.17-2.89-.22-3.95-1.43-.84-1.5-.52-2.85.54-4.09l-.05.05Z"/>
      <path class="cls-7" d="M468.39,32.13c1.34,0,2.68,0,4.02.01l-.04-.04c1.23,4.46.79,4.96-3.85,4.37-1.39-1.42-1.25-2.87-.12-4.36h0Z"/>
      <path class="cls-7" d="M496.24,44.15c.04,1.32.07,2.63.11,3.95-.2.2-.4.39-.6.59-1.45.66-2.74.51-3.84-.71-.84-1.41-.56-2.7.46-3.89,0,0,0,0,0,0,1.29.01,2.59.03,3.88.04Z"/>
      <path class="cls-7" d="M420.48,16.18c-.53-3.19.8-4.52,4-3.99l-.04-.04c1.06,1.43,1.34,2.94-.12,4.2-1.24,1.08-2.63.75-3.88-.21l.04.04Z"/>
      <path class="cls-7" d="M340.65,120.08c9.27-.09,18.55-.19,27.82-.28,1.06-.91,2.21-1.57,3.68-1.35,1.37-.06,2.75-.2,4,.57.48.29.85.69,1.13,1.19.59,1.43.27,2.67-.83,3.73-7.97.05-15.95.1-23.92.16-1.31,1.04-2.63,1.04-3.94,0-2.68-.05-5.36-.11-8.03-.16,0,0,.03.03.03.03-1.05-1.31-1.14-2.6.06-3.87Z"/>
      <path class="cls-7" d="M404.56,112.1c3.95-.09,7.9-.19,11.84-.28,1.06-.91,2.2-1.57,3.67-1.35,1.36-.04,2.73-.13,3.87.83.16.21.33.43.49.65-.03,1.31-.05,2.63-.08,3.94-3.96.08-7.91.15-11.87.23-2.21,1.93-4.66,1.98-7.26.97-.53-.26-.96-.63-1.31-1.1-.72-1.45-.51-2.75.64-3.89Z"/>
      <path class="cls-7" d="M424.53,108.1c2.62-.09,5.23-.19,7.85-.28,1.06-.91,2.2-1.57,3.67-1.35,1.36-.04,2.73-.13,3.87.83.16.21.33.43.49.65.36,2.85-.68,4.2-3.77,4.05-4.06-.19-8.14-.06-12.21-.06,0,0,.03.03.03.03-1.05-1.31-1.14-2.6.06-3.87Z"/>
      <path class="cls-7" d="M500.2,67.99c0-2.62,0-5.24,0-7.86-.86-1.08-1.17-2.23-.45-3.51.19-.17.37-.34.56-.51,2.83-.4,4.26.48,4.08,3.68-.24,4.07-.08,8.16-.09,12.24-1.32,0-2.65,0-3.97,0-.19-.17-.38-.34-.57-.51-.74-1.28-.43-2.44.43-3.53Z"/>
      <path class="cls-7" d="M452.49,100.12c1.28-.09,2.57-.19,3.85-.28,1.06-.91,2.2-1.57,3.67-1.35,1.36-.04,2.73-.13,3.87.83.16.21.33.43.49.65.34,2.81-.63,4.26-3.73,4.05-2.74-.19-5.5-.05-8.25-.05-.18-.17-.36-.34-.55-.5-.66-1.28-.44-2.39.64-3.33Z"/>
      <path class="cls-7" d="M440.51,104.11c1.28-.09,2.57-.19,3.85-.28,1.15-1.07,2.51-1.51,4.07-1.34,1.58-.16,2.91.35,4,1.5,0,0-.03-.03-.03-.03.34,2.81-.63,4.26-3.73,4.05-2.74-.19-5.5-.05-8.25-.05,0,0,.03.03.03.03-1.05-1.31-1.14-2.6.06-3.87Z"/>
      <path class="cls-7" d="M496.26,75.92c.06-1.25.13-2.51.19-3.76,1.28-1.25,2.6-1.15,3.93-.08,0,0-.05-.05-.05-.05,0,1.6-.09,3.21.02,4.8.22,3.1-1.73,3.33-4.02,3.18-.19-.17-.38-.35-.57-.52-.74-1.31-.4-2.47.49-3.56Z"/>
      <path class="cls-7" d="M488.35,87.99c.14,6.93-5.21,2.89-7.99,3.99-.18-.17-.37-.34-.55-.51-.68-1.29-.42-2.42.62-3.4l-.08-.11c1.02-.96,2.15-1.64,3.63-1.44,1.36-.05,2.73-.14,3.88.82.16.21.33.43.49.65Z"/>
      <path class="cls-7" d="M472.47,92.14c1.27-.08,2.53-.16,3.8-.24,1.4-1.04,2.78-1.01,4.12.12,0,0-.03-.03-.03-.03.14,6.93-5.21,2.89-7.99,3.99-.18-.17-.36-.34-.55-.5-.66-1.28-.44-2.39.65-3.33Z"/>
      <path class="cls-7" d="M464.48,96.13c1.27-.08,2.54-.16,3.8-.24,1.4-1.04,2.78-1.01,4.12.12,0,0-.03-.03-.03-.03.14,6.93-5.21,2.89-7.99,3.99,0,0,.03.03.03.03-1.05-1.31-1.14-2.6.06-3.87Z"/>
      <path class="cls-7" d="M496.34,80.01c.44,3.1-.89,4.43-3.99,3.99-.19-.17-.37-.35-.56-.52-.71-1.3-.39-2.44.56-3.48h0c1.35-1.08,2.7-1.05,4.03.04l-.03-.03Z"/>
      <path class="cls-7" d="M492.35,84c.44,3.1-.89,4.43-4,3.99,0,0,.03.03.03.03-1.09-1.33-1.11-2.67-.03-4.02h0c1.35-1.08,2.7-1.06,4.03.03l-.03-.03Z"/>
      <path class="cls-7" d="M388.52,120.1c-4.01-.06-8.01-.12-12.02-.18,0,0,.03.03.03.03-1.04-1.31-1.14-2.6.07-3.87,6.61-.09,13.22-.19,19.83-.28,1.15-1.07,2.51-1.51,4.07-1.34,1.58-.15,2.91.35,4,1.5l-.03-.03c1.07,1.35,1.14,2.67-.09,3.96-5.28.07-10.57.14-15.85.2Z"/>
      <path class="cls-7" d="M500.24,48.15c.09,1.31.18,2.62.27,3.93-.06,1.35-.13,2.69-.19,4.04,0,0,.06-.06.06-.06-1.31,1.11-2.71,1.38-4.24.43-1.27-1.17-1.44-2.66-1.29-4.26-.12-1.61.29-3.02,1.51-4.13,0,0-.01.01-.01.01,1.3.01,2.59.03,3.89.04Z"/>
      <path class="cls-33" d="M164.73,120.08c1.33-.01,2.66-.03,4-.04,1.13,1.21,1.22,2.47.16,3.78-1.36.04-2.73.08-4.09.13-.02-1.29-.04-2.58-.06-3.87Z"/>
      <path class="cls-30" d="M168.88,123.82c-.05-1.26-.1-2.52-.16-3.78,2.99-.53,4.38.71,4.13,3.74-1.33.01-2.65.02-3.98.04Z"/>
      <path class="cls-30" d="M332.52,123.79c-.25-3.03,1.15-4.25,4.12-3.76,1.08,1.31,1.01,2.58-.14,3.81-1.33-.02-2.66-.03-3.99-.05Z"/>
      <path class="cls-33" d="M336.5,123.84c.05-1.27.09-2.54.14-3.81,1.34.02,2.67.03,4.01.05-.02,1.29-.04,2.58-.06,3.87-1.36-.04-2.72-.07-4.08-.11Z"/>
      <path class="cls-33" d="M128.78,116.09c1.33-.01,2.66-.03,4-.04,1.13,1.21,1.22,2.47.16,3.78-1.36.04-2.72.08-4.09.12-.02-1.29-.04-2.58-.07-3.86Z"/>
      <path class="cls-30" d="M132.93,119.83c-.05-1.26-.1-2.52-.16-3.78,2.99-.53,4.38.71,4.13,3.74-1.33.01-2.65.02-3.98.04Z"/>
      <path class="cls-30" d="M104.96,115.84c-.05-1.26-.1-2.52-.16-3.78,2.99-.53,4.38.71,4.13,3.74-1.33.01-2.65.02-3.98.04Z"/>
      <path class="cls-17" d="M408.44,4.2c2.75-.35,4.32.31,4.1,3.63-.27,4.08-.07,8.19-.08,12.29-1.64,2.2-2.26,4.72-2.36,7.39.06.41-.1,1.13.51,1.05.37-.05.33-.83.33-1.34-.14-3.95,3.52-4.82,5.62-6.95,1.27-.08,2.55-.15,3.82-.23,1.83.87,2.69,2.91,4.58,3.73.33.38.58.8.78,1.26.66,2.3.91,4.56-.78,6.57-1.49,1.53-3.02,3.03-4.53,4.55-2.19,2.45-6.75,1.35-8,5.82,3.26-1.27,5.27-3.82,7.78-5.6,1.43-1.43,2.87-2.86,4.3-4.3.89-.9,1.93-1.27,3.18-.95.44.14.85.36,1.21.64.78.57,1.27,2.54,2.56.49.25-.34.55-.63.88-.9,1.64-.68,2.65-2.01,3.54-3.48.36-.32.76-.55,1.21-.72,1.32-.35,2.41.03,3.34.99h-.02c.92.93,1.67,1.95,1.53,3.37.21,3.69.33,7.46,5.68,6.95,2.04.38,3.19-.73,3.99-2.41.31-.34.68-.6,1.09-.8,3.86-1.5,4.93,2.51,7.42,3.74.39.25.72.56,1.02.9.91,1.73,1.78,1.31,2.65-.07.37-.35.77-.62,1.22-.85,1.24-.6,2.56-.39,3.86-.4,1.4-.2,2.65.14,3.76.99,1.39,3.94,3.42,7.24,8,8.02.92.93,1.3,2.08,1.34,3.35-.22,1.98.36,3.5,2.39,4.22.37.27.68.59.96.94,1.26,3.31,4.89,1.54,6.92,3.2.41.31.72.69.95,1.14.51,1.35.2,2.53-.74,3.57-1.39.03-2.78.06-4.17.08-3.79,1.51-6.28,4.31-7.91,7.96v-.02c-1.33,1.33-2.66,2.67-4,4h.03c-1.33,1.3-2.66,2.62-3.96,3.96-1.37.02-2.73.04-4.1.05-1.3,1.31-2.61,2.61-3.89,3.94-1.37.02-2.73.04-4.1.05-1.3,1.31-2.61,2.61-3.89,3.94l-8.09.05c-1.3,1.31-2.61,2.61-3.89,3.94-4.03.02-8.06.04-12.09.05-1.3,1.31-2.61,2.61-3.89,3.94-4.03.02-8.06.04-12.09.05-1.3,1.31-2.61,2.61-3.89,3.94-5.36.02-10.72.04-16.08.05-1.3,1.31-2.61,2.61-3.89,3.94-8.02.02-16.05.04-24.07.05-1.3,1.31-2.61,2.61-3.89,3.94-10.69.02-21.37.04-32.06.05-1.3,1.31-2.61,2.61-3.89,3.94h-151.9c-1.28-1.33-2.59-2.63-3.89-3.94-10.69-.02-21.37-.04-32.06-.05-1.28-1.33-2.59-2.63-3.89-3.94-8.02-.02-16.05-.04-24.07-.05-1.28-1.33-2.59-2.63-3.89-3.94-5.36-.02-10.72-.04-16.08-.05-1.28-1.33-2.59-2.63-3.89-3.94-4.03-.02-8.06-.04-12.09-.05-1.28-1.33-2.59-2.63-3.89-3.94-4.03-.02-8.06-.04-12.09-.05-1.28-1.33-2.59-2.63-3.89-3.94l-8.09-.05c-1.28-1.33-2.59-2.63-3.89-3.94-1.37-.02-2.73-.04-4.1-.05-1.28-1.33-2.59-2.63-3.89-3.94-1.37-.02-2.73-.04-4.1-.05-1.3-1.34-2.63-2.66-3.96-3.97h.03c-1.35-1.32-2.67-2.67-4.02-3.99v.02c-1.62-3.65-4.1-6.45-7.89-7.96-1.39-.03-2.78-.06-4.17-.08-.92-1.01-1.24-2.16-.78-3.48.2-.44.5-.82.86-1.14,1.99-1.78,5.62.04,6.98-3.17.26-.37.57-.7.91-.99,1.88-.74,2.8-2.07,2.54-4.14-.05-1.29.31-2.44,1.18-3.41,4.49-.92,6.89-3.93,8.15-8.12,1.14-.9,2.44-1.18,3.85-.99,1.31-.03,2.64-.16,3.84.54,1.44,1.25,2.85,3.04,4.47.19,2.6-1.25,3.62-5.64,7.73-3.91,1.64.92,2.16,3.57,4.73,3.09,4.42.38,6.18-1.87,6-6.04.03-1.23-.14-2.49.46-3.65.23-.47.55-.86.94-1.19,1.15-.73,2.37-.82,3.64-.4.44.18.83.45,1.18.78.84,1.28,1.58,2.66,3.19,3.19.36.25.68.55.97.88.94,1.77,1.76,1.02,2.55-.15.35-.32.74-.55,1.18-.72,1.23-.35,2.32-.11,3.25.76,1.44,1.45,2.89,2.89,4.34,4.34,2.38,2,4.74,4.04,7.7,6.09-.75-4.96-5.6-3.68-7.68-6.06-1.51-1.52-3.02-3.03-4.53-4.54-1.77-1.99-1.58-4.25-.96-6.58.17-.46.42-.89.71-1.29,1.81-.97,2.86-2.89,4.7-3.85,1.27.08,2.55.15,3.82.23,2.11,2.14,5.78,3.02,5.62,6.97.02.47-.02,1.26.34,1.31.62.09.46-.63.5-1.08-.09-2.69-.78-5.16-2.36-7.35,0-4.1.2-8.2-.08-12.28-.23-3.31,1.35-3.98,4.08-3.68l.05,3.89c1.12,1.51,2.64,2.66,3.76,4.16-.28,3.09,1.06,4.46,4.18,3.95,0,0-.08-.04-.08-.04,1.19,1.59,3.13,2.22,4.53,3.55.84,1.89,2.4,3.09,4.08,4.17,3.11,3.32,4.42,3.1,5.71-.99.29-.92.49-1.87,1.04-2.69,1.31-1.44,3.57-2.24,3.13-4.82-.07-1.36.64-2.33,1.57-3.2,0,0-.08.04-.08.04,7.22.26,2.76-5.3,4-8.02,3.25-.49,4.31.99,4.07,4.12-.2,2.59.04,5.2.09,7.81.92.99,1.3,2.22,1.71,3.49,1.14,3.54,2.93,3.67,5.11.77.31-.39.67-.7,1.09-.96,1.2-.56,2.41-.59,3.63-.11.43.21.82.49,1.15.84,3.04,3,4.33,2.77,5.43-1.01.27-.93.38-1.91.9-2.76.29-.41.66-.72,1.08-.98,1.22-.52,2.41-.47,3.58.14,1.56,1.3,2.48,3.29,4.46,4.16,1.44,2.59,2.66.87,3.91-.21,1.13-.55,2.26-.57,3.4-.07,1.35.9,2.64,3.16,4.15.15,2.65-1.17,3.52-5.36,7.44-4.38.45.15.87.37,1.25.67,1.05,1.5,1.98,3.18,4.29,2.69,2.06-.38,4.13-.37,6.19-.04,1.87.31,3.3-.2,4.01-2.11.25-.35.54-.66.87-.94,1.66-.71,2.71-2.03,3.58-3.54.35-.34.74-.61,1.18-.83,1.19-.59,2.46-.42,3.72-.4,1.3-.16,2.53.04,3.63.79,1.62,1.16,1.35,3.25,2.32,4.79,2.65-.84,3.97-3.25,5.93-4.89,1.25-.53,2.47-.49,3.67.16,1.42,1.04,1.89,2.62,1.93,4.2.05,1.84.86,2.98,2.39,3.77,1.13,1.01,1.44,3.05,3.7,2.62,2.24-.42,2.01-2.31,2.49-3.77.37-1.11.77-2.17,1.75-2.91,1.17-.85,2.52-.82,3.86-.84,2.53-.54,5.05-.56,7.58-.02,1.33.06,2.69-.08,3.9.66,3.81,4.3,5.3,4.03,8.72.08,1.2-.77,2.56-.68,3.89-.72,2.52-.5,5.05-.58,7.57,0,1.33.05,2.69-.06,3.87.75,1.17.79,1.6,2.03,1.97,3.31.4,1.37.32,2.98,2.27,3.44,2.25.52,2.72-1.37,3.77-2.51,3.72-1.43,1.49-6.02,4.25-7.96,1.17-.71,2.39-.78,3.65-.31,1.98,1.61,3.35,3.95,5.92,4.98,1.29-1.3.78-3.51,2.32-4.67,1.07-.79,2.27-1.11,3.59-.94,1.25.04,2.53-.22,3.74.31.44.18.84.44,1.2.74,1.02,1.38,1.81,2.99,3.61,3.6.35.25.66.56.92.9.69,1.85,2.01,2.62,3.96,2.3,2.07-.38,4.14-.37,6.2-.02,2.19.48,3.3-.86,4.23-2.51.35-.33.75-.58,1.19-.77,4-1.23,4.95,2.97,7.56,4.21,1.34,2.48,2.73,1.55,4.13.03,1.11-.54,2.24-.56,3.36-.08,1.34.61,2.52,3.49,4.11.25,2.03-.83,2.89-2.92,4.54-4.16,1.19-.55,2.37-.54,3.53.09.85.55,1.26,1.41,1.6,2.33,1.99,5.39,2.75,5.57,6.76,1.59,1.19-.56,2.38-.57,3.57-.04,1.58.84,2.34,3.87,4.74,2.4,2.68-1.65,1.65-4.61,1.65-7.15-.3-2.46-.42-4.96.06-7.35.62-3.12,2.15-5.31,5.81-3.11l-.07-.07c2.71,1.61.68,5.88,4.03,7.12.36.3.66.66.91,1.06.56,1.05.76,2.18.65,3.36-.38,2.47,1.94,3.1,3.11,4.51.58.83.76,1.81,1.06,2.75,1.23,3.87,2.44,4.09,5.54,1.06,1.47-1.25,3.32-2.12,4.06-4.1,1.11-1.34,3.13-1.76,3.69-3.66.26-.37.57-.68.91-.97,1.82-.56,2.39-2.38,3.58-3.58,1.72-.99,3.29-2.08,2.93-4.44-.04-1.32.66-2.26,1.56-3.1l-.08.04Z"/>
      <path class="cls-15" d="M480.38,72.06c.19-8.6-1.46-8.03,7.91-7.96-.77,4.51-3.48,7.09-7.91,7.96Z"/>
      <path class="cls-15" d="M17.09,64.1c9.37-.07,7.72-.64,7.91,7.96-4.43-.88-7.14-3.45-7.91-7.96Z"/>
      <path class="cls-30" d="M496.45,55.97c1.31.03,2.62.06,3.93.08-.06,1.36-.12,2.72-.18,4.08-1.3-.02-2.6-.03-3.9-.05-.19-.19-.38-.38-.57-.57-.61-1.36-.59-2.59.72-3.55Z"/>
      <path class="cls-15" d="M13.04,60.04c-.04,1.33-.08,2.65-.12,3.98-3.12.48-4.33-.9-3.85-3.93,0,0-.05.04-.05.04,1.32-1.1,2.65-1.36,4.02-.09Z"/>
      <path class="cls-15" d="M492.46,64.02c-.04-1.33-.08-2.65-.12-3.98,1.37-1.28,2.7-1.01,4.02.09,0,0-.05-.04-.05-.04.48,3.03-.73,4.41-3.85,3.93Z"/>
      <path class="cls-30" d="M500.38,72.08c-1.31.03-2.62.06-3.93.08-.51-2.97.67-4.42,3.75-4.17.06,1.36.12,2.72.18,4.09Z"/>
      <path class="cls-18" d="M24.98,72.04c3.03-.36,4.35.98,4.02,4-3.03.36-4.37-.97-4.02-4Z"/>
      <path class="cls-18" d="M476.37,76.04c-.34-3.01.99-4.36,4.02-4,.35,3.03-.99,4.36-4.02,4Z"/>
      <path class="cls-34" d="M28.97,76.03c2.99-.34,4.44.85,3.97,3.97-3.08.43-4.28-1.01-3.97-3.97Z"/>
      <path class="cls-34" d="M472.44,80c-.48-3.12.97-4.31,3.96-3.97.32,2.96-.88,4.4-3.96,3.97Z"/>
      <path class="cls-33" d="M496.37,80.04c-1.34-.01-2.69-.02-4.03-.03-.42-3.01.9-4.36,3.92-4.09.04,1.37.08,2.75.12,4.12Z"/>
      <path class="cls-34" d="M37.03,80.06c3.04-.41,4.33.91,3.89,3.94-3.02.39-4.34-.9-3.89-3.94Z"/>
      <path class="cls-34" d="M464.45,84c-.44-3.03.85-4.34,3.89-3.94.45,3.04-.87,4.33-3.89,3.94Z"/>
      <path class="cls-33" d="M492.38,84.03c-1.34-.01-2.69-.02-4.03-.03-.4-3.06.93-4.39,4-4,.01,1.34.02,2.68.03,4.03Z"/>
      <path class="cls-34" d="M45.02,84.05c3.04-.41,4.33.91,3.89,3.94-3.02.39-4.34-.9-3.89-3.94Z"/>
      <path class="cls-34" d="M456.46,87.99c-.44-3.03.85-4.34,3.89-3.94.45,3.04-.87,4.33-3.89,3.94Z"/>
      <path class="cls-30" d="M484.31,87.92c-1.32.01-2.64.03-3.96.04-.3-3.04,1.04-4.36,4.09-3.86,1.08,1.31,1.01,2.58-.13,3.82Z"/>
      <path class="cls-33" d="M484.31,87.92c.04-1.27.08-2.55.13-3.82,1.31-.03,2.61-.06,3.92-.1,0,1.34.02,2.68.03,4.02-1.36-.03-2.72-.07-4.07-.1Z"/>
      <path class="cls-34" d="M57,88.04c3.04-.41,4.33.91,3.89,3.94-3.02.39-4.34-.9-3.89-3.94Z"/>
      <path class="cls-34" d="M444.48,91.98c-.44-3.03.85-4.34,3.89-3.94.45,3.04-.87,4.33-3.89,3.94Z"/>
      <path class="cls-33" d="M480.4,92.02c-1.37-.04-2.75-.08-4.12-.12-.22-3.01,1.07-4.39,4.15-3.83,0,1.32-.02,2.63-.03,3.95Z"/>
      <path class="cls-34" d="M72.98,92.03c3.04-.41,4.33.91,3.89,3.94-3.02.39-4.34-.9-3.89-3.94Z"/>
      <path class="cls-34" d="M428.5,95.97c-.44-3.03.85-4.34,3.89-3.94.45,3.04-.87,4.33-3.89,3.94Z"/>
      <path class="cls-33" d="M472.41,96.01c-1.37-.04-2.75-.08-4.12-.12-.19-3.02,1.04-4.45,4.19-3.75-.02,1.29-.04,2.58-.06,3.87Z"/>
      <path class="cls-34" d="M88.96,96.02c3.04-.41,4.33.91,3.89,3.94-3.02.39-4.34-.9-3.89-3.94Z"/>
      <path class="cls-34" d="M412.52,99.96c-.44-3.03.85-4.34,3.89-3.94.45,3.04-.87,4.33-3.89,3.94Z"/>
      <path class="cls-30" d="M460.34,99.89c-1.33-.02-2.66-.03-3.99-.05-.25-3.03,1.15-4.25,4.12-3.76,1.08,1.31,1.01,2.58-.14,3.81Z"/>
      <path class="cls-33" d="M460.34,99.89c.05-1.27.09-2.54.14-3.81,1.34.02,2.67.03,4.01.05-.02,1.29-.04,2.58-.06,3.87-1.36-.04-2.72-.07-4.08-.11Z"/>
      <path class="cls-34" d="M108.93,100.02c3.04-.41,4.33.91,3.89,3.94-3.02.39-4.34-.9-3.89-3.94Z"/>
      <path class="cls-34" d="M392.55,103.95c-.44-3.03.85-4.34,3.89-3.94.45,3.04-.87,4.33-3.89,3.94Z"/>
      <path class="cls-30" d="M448.35,103.88c-1.33-.02-2.66-.03-3.99-.05-.25-3.03,1.15-4.25,4.12-3.76,1.08,1.31,1.01,2.58-.14,3.81Z"/>
      <path class="cls-33" d="M448.35,103.88c.05-1.27.09-2.54.14-3.81,1.34.02,2.67.03,4.01.05-.02,1.29-.04,2.58-.06,3.87-1.36-.04-2.72-.07-4.08-.11Z"/>
      <path class="cls-34" d="M136.9,104.01c3.04-.41,4.33.91,3.89,3.94-3.02.39-4.34-.9-3.89-3.94Z"/>
      <path class="cls-34" d="M364.59,107.94c-.44-3.03.85-4.34,3.89-3.94.45,3.04-.87,4.33-3.89,3.94Z"/>
      <path class="cls-30" d="M436.37,107.87c-1.33-.02-2.66-.03-3.99-.05-.25-3.03,1.15-4.25,4.12-3.76,1.08,1.31,1.01,2.58-.14,3.81Z"/>
      <path class="cls-33" d="M436.37,107.87c.05-1.27.09-2.54.14-3.81,1.34.02,2.67.03,4.01.05-.02,1.29-.04,2.58-.06,3.87-1.36-.04-2.72-.07-4.08-.11Z"/>
      <path class="cls-34" d="M172.85,108c3.04-.41,4.33.91,3.89,3.94-3.02.39-4.34-.9-3.89-3.94Z"/>
      <path class="cls-34" d="M328.63,111.94c-.44-3.03.85-4.34,3.89-3.94.45,3.04-.87,4.33-3.89,3.94Z"/>
      <path class="cls-30" d="M420.39,111.86c-1.33-.02-2.66-.03-3.99-.05-.25-3.03,1.15-4.25,4.12-3.76,1.08,1.31,1.01,2.58-.14,3.81Z"/>
      <path class="cls-33" d="M420.39,111.86c.05-1.27.09-2.54.14-3.81,1.34.02,2.67.03,4.01.05-.02,1.29-.04,2.58-.06,3.87-1.36-.04-2.72-.07-4.08-.11Z"/>
      <path class="cls-30" d="M400.42,115.85c-1.33-.02-2.66-.03-3.99-.05-.25-3.03,1.15-4.25,4.12-3.76,1.08,1.31,1.01,2.58-.14,3.81Z"/>
      <path class="cls-33" d="M400.42,115.85c.05-1.27.09-2.54.14-3.81,1.34.02,2.67.03,4.01.05-.02,1.29-.04,2.58-.07,3.87-1.36-.04-2.72-.07-4.08-.11Z"/>
      <path class="cls-30" d="M372.45,119.85c-1.33-.02-2.66-.03-3.99-.05-.25-3.03,1.15-4.25,4.12-3.76,1.08,1.31,1.01,2.58-.14,3.81Z"/>
      <path class="cls-33" d="M372.45,119.85c.05-1.27.09-2.54.14-3.81,1.34.02,2.67.03,4.01.05-.02,1.29-.04,2.58-.07,3.87-1.36-.04-2.72-.07-4.08-.11Z"/>
      <path class="cls-3" d="M13.04,60.04c-1.34.03-2.68.06-4.02.09-.03-1.39-.07-2.78-.1-4.16.06-1.26.13-2.51.19-3.77,1.15-1.51,2.58-2.75,3.92-4.09h0c.96-.97,2.08-1.32,3.41-.92,2.08.82,2.59,3.4,4.7,4.19.35.36.61.78.8,1.25.4,1.36.02,2.5-.98,3.47l.07-.07c-1.94,2.82-6.24.98-8.05,4.06l.06-.06Z"/>
      <path class="cls-7" d="M148.84,12.19c-.6-3.49,1.26-4.07,4.27-4.05,15.89.11,31.77.06,47.66.06.19.17.37.34.56.5.71,1.27.43,2.41-.48,3.46l-.31-.06c-1.03,1.41-2.55,1.59-4.12,1.69-5.16.75-10.33.53-15.51.14-2.73.28-5.45.39-8.18,0-5.14.36-10.27.5-15.41,0-1.49,0-2.99.17-4.47-.17-1.58.06-2.96-.4-4.04-1.58l.02.02Z"/>
      <path class="cls-7" d="M300.55,12.15c-1.28.05-2.56.1-3.84.15-2.72,2.27-5.44,2.27-8.16,0-1.27,0-2.55,0-3.82,0-1.14,1.07-2.49,1.55-4.05,1.46-2.58.54-5.16.58-7.74.04-1.35-.04-2.75.12-3.97-.68-3.07-1.9-1.01-6.29-3.99-8.25-.1-.22-.19-.44-.29-.66-.27-7.05,5.15-2.83,7.87-3.97,2.07,6.48,7.16,6.43,12.6,5.99,3.91-.32,7.99.59,11.52-1.91l3.96-.28c1.37-.96,2.68-1.11,3.92.22.01,1.32.03,2.63.04,3.95-.09.19-.18.39-.26.59-1.28,1.1-2.58,2.17-3.79,3.36Z"/>
      <path class="cls-7" d="M220.64,12.29c-1.27,0-2.55,0-3.82,0-2.72,2.27-5.44,2.27-8.16,0l-3.84-.15c-1.42-1.26-2.72-2.66-4.08-3.98l.03.03c-.55-3.17.95-4.39,3.97-4.17,1.4-1.01,2.72-.93,3.96.28-.19,2.49.36,4.05,3.48,3.93,5.64-.21,11.3-.18,16.94-.01,2.93.09,3.89-1.14,3.6-3.83-.29-2.71.31-4.36,3.67-4.28,3,.07,4.91.56,4.3,4.09-.1.22-.2.44-.29.65-2.97,1.93-.96,6.24-3.91,8.19-1.22.83-2.6.71-3.97.74-2.6.51-5.2.53-7.79-.02-1.57.08-2.94-.39-4.08-1.47Z"/>
      <path class="cls-7" d="M244.68,8.2c1.34-.06,2.68-.12,4.03-.18,1.32-1.03,2.64-1.03,3.96,0h4.03c1.03-.88,2.17-1.19,3.48-.7.48.22.87.55,1.17.98.66,1.26.65,2.52,0,3.79-.3.46-.68.82-1.15,1.1-1.22.72-2.57.55-3.89.58-2.34.45-4.67.53-7.01.03-1.29-.14-2.63.14-3.86-.47-.48-.22-.89-.54-1.24-.94-.75-1.2-.82-2.43-.1-3.67.19-.17.39-.34.58-.5Z"/>
      <path class="cls-7" d="M240.69,4.2c3.16-.49,4.49.84,3.99,3.99l.04-.04c-1.35,1.11-2.76,1.38-4.27.29-1.08-1.5-.86-2.91.26-4.27l-.03.03Z"/>
      <path class="cls-7" d="M260.69,8.2c.03-1.33.06-2.65.08-3.98,1.3,0,2.61-.01,3.91-.02l-.03-.03c1.12,1.36,1.34,2.77.27,4.27-1.5,1.1-2.91.83-4.27-.28l.04.04Z"/>
      <path class="cls-7" d="M32.95,28.24c0,1.3.01,2.6.02,3.9-.09.21-.19.42-.28.62-2.78,1.73-1.36,5.18-3.02,7.38-.32.42-.71.74-1.17,1-2.39.92-4.73,1.09-6.99-.37-.17-.21-.33-.43-.49-.65.07-.96-.1-2.68.23-2.78,3.95-1.23,3.75-4.33,3.9-7.52.12-2.46,2.49-1.35,3.85-1.86,1.39-1.03,2.71-.91,3.95.27Z"/>
      <path class="cls-7" d="M49.08,24.2c5.29-.01,10.59-.02,15.88-.04,0,0-.03-.03-.03-.03,1.09,1.34,1.1,2.68.01,4.02l.02-.02c-1.06,1.1-2.34,1.65-3.88,1.55-2.52.46-5.04.71-7.57.08-1.39-.11-2.85.06-4.03-.94-.17-.22-.34-.45-.51-.67l.1-3.95Z"/>
      <path class="cls-7" d="M36.99,32.14c-.37-2.79.45-4.32,3.67-4.05,2.75.23,5.54.06,8.31.06,0,0-.02-.02-.02-.02,1.07,1.26,1.35,2.62.49,4.11-1.06,1.19-2.41,1.59-3.95,1.44-1.38.05-2.76.37-4.14.02-1.35-.04-2.74.07-3.88-.91-.16-.22-.32-.43-.49-.65Z"/>
      <path class="cls-7" d="M13.12,40.16c2.63-.01,5.26-.02,7.89-.03l-.05-.05c1.11,1.31,1.38,2.71.43,4.24-1.17,1.27-2.67,1.44-4.26,1.29-1.61.12-3.02-.3-4.14-1.51l.03.03c-1.06-1.35-1.14-2.67.1-3.96Z"/>
      <path class="cls-7" d="M32.97,32.14c1.34,0,2.68,0,4.02,0,0,0-.02-.02-.02-.02,1.04,1.2,1.35,2.5.55,3.95-.38.47-.86.8-1.43.99-3.83.1-4.95-1.5-3.09-4.95l-.03.03Z"/>
      <path class="cls-7" d="M304.6,8.2c17.28,0,34.56.01,51.84.02,1.14,1,1.43,2.22.89,3.63-.26.51-.62.91-1.09,1.22-1.26.82-2.69.65-4.08.7-1.41.37-2.85,0-4.27.13-5.07.51-10.13.4-15.2.02-2.72.36-5.44.31-8.16,0-5.19.36-10.37.64-15.55-.13-1.57-.1-3.12-.27-4.14-1.7l-.31.06c-1.09-1.36-.95-2.69.12-3.99l-.04.04Z"/>
      <path class="cls-7" d="M376.55,4.23c-2.74-.39-4.35.27-4.08,3.57.23,2.74-.04,5.53-.09,8.3-.96,1.12-2.15,1.7-3.63,1.59-1.33.19-2.66.35-4,.08-1.31.1-2.63.26-3.94-.05-1.34,0-2.7.12-3.92-.64-.47-.3-.84-.69-1.11-1.18-.6-1.42-.24-2.64.77-3.74h0c1.84-2.03,4.31-1.99,6.73-1.95,2.02.03,3.88-.13,5.1-2.03.06-1.32.25-2.65.14-3.95-.26-2.85.59-4.17,3.8-4.13,3.08.03,4.77.74,4.25,4.12Z"/>
      <path class="cls-7" d="M380.68,8.19c-.04,1.34-.09,2.68-.13,4.02-7.15.24-2.77-5.33-4.07-8.05,3.17-.5,4.44.97,4.2,4.03Z"/>
      <path class="cls-7" d="M404.51,8.21c.03-1.33.05-2.66.08-3.98,1.31-.02,2.62-.04,3.93-.07-.04,1.3-.08,2.6-.12,3.9-.93,1.14-2.06,1.35-3.37.7-.17-.18-.35-.37-.52-.55Z"/>
      <path class="cls-15" d="M140.87,20.13c.53,3.88-1.82,4.08-4.8,4.07-3.19-.01-3.32-1.9-3.22-4.19.05-1.3.09-2.61.14-3.91,1.32.06,2.63.12,3.95.19,1.11,1.49,2.97,2.21,3.93,3.85Z"/>
      <path class="cls-33" d="M148.82,12.16c1.34.04,2.68.07,4.02.11,1.15,1.32,1.02,2.63,0,3.95l.03-.03c-1.07.94-2.23,1.29-3.55.56-.18-.19-.35-.38-.53-.57,0-1.34.01-2.68.02-4.01Z"/>
      <path class="cls-3" d="M140.87,20.13c-2.95.39-4.53-.62-3.93-3.85,1.27,0,2.54,0,3.81,0,1.22,1.28,1.13,2.59.06,3.91l.06-.06Z"/>
      <path class="cls-15" d="M140.8,20.19c-.02-1.3-.04-2.6-.06-3.91,1.39,0,2.79,0,4.18,0,1.08,1.32,1.16,2.62-.06,3.9-1.35,0-2.7,0-4.06,0Z"/>
      <path class="cls-3" d="M144.86,20.18c.02-1.3.04-2.6.06-3.9,1.29-.03,2.59-.07,3.88-.1,0,0-.1.11-.1.11,1.11,1.29,1.4,2.68.11,3.94-1.29,1.26-2.7.86-4.01-.11l.06.06Z"/>
      <path class="cls-19" d="M85,20.04c.12,2.73-.59,4.64-3.92,3.95-1.86-.75-2.64-2.62-4-3.89-.05-1.47.03-2.96-.18-4.4-.51-3.39,1.34-3.88,4.03-3.48,0,0-.07-.06-.07-.06,1.39,1.32,2.75,2.67,4.06,4.06,0,0-.06-.07-.06-.07.05,1.3.09,2.59.14,3.89Z"/>
      <path class="cls-15" d="M92.98,28.05c-.29-1.44.47-3.5-1.83-3.82-2.6-.37-2.12-2.31-2.33-3.96,1.37-.05,2.73-.1,4.1-.15,6.73-.02,3.03,5.07,3.9,7.93-1.28,1.17-2.56,1.17-3.84,0Z"/>
      <path class="cls-7" d="M124.9,12.15c-.06,1.32-.12,2.63-.18,3.95-.94,1.09-2.09,1.71-3.57,1.59-1.33.15-2.65.35-3.98.03-1.33-.03-2.69.06-3.8-.89-.16-.21-.32-.43-.47-.65-.38-2.81.47-4.32,3.69-4.05,2.76.23,5.55.03,8.33.02Z"/>
      <path class="cls-7" d="M108.79,20.27c-3.14.36-4.38-1.09-3.95-4.13,2.68.01,5.36.03,8.05.04,0,0-.02-.02-.02-.02,1.09,1.35,1.29,2.74.16,4.19-1.43,1.14-2.84.95-4.24-.07Z"/>
      <path class="cls-3" d="M69.03,24.25c2.65-.02,5.3-.05,7.94-.07.23.19.46.39.69.58,1.58,2.66,1.36,5.13-.77,7.4l.07-.07c-1.35,1.13-2.7,1.13-4.06,0l.07.07c-1.36-1.35-2.71-2.7-4.06-4.06l.06.06c-1.07-1.32-1.16-2.63.06-3.91Z"/>
      <path class="cls-15" d="M69.03,24.25c-.02,1.3-.04,2.61-.06,3.91-1.34,0-2.68,0-4.02,0,0-1.34,0-2.68-.01-4.02,1.37.04,2.73.08,4.1.12Z"/>
      <path class="cls-17" d="M77.08,20.11c2.93-.35,4.09,1.13,3.99,3.89,0,0-.29.28-.29.28-1.34,1.14-2.63.87-3.89-.14,0,0,.07.05.07.05.04-1.36.07-2.72.11-4.07Z"/>
      <path class="cls-18" d="M100.74,12.22c-3.09.27-4.22-1.23-3.76-4.16,1.31.03,2.63.07,3.94.1-.06,1.35-.12,2.71-.18,4.06Z"/>
      <path class="cls-33" d="M13.03,48.11c.42,3.01-.9,4.36-3.92,4.09-.04-1.37-.07-2.74-.11-4.12,1.34,0,2.68.02,4.03.03Z"/>
      <path class="cls-33" d="M13,44.09c1.34.04,2.68.07,4.03.11,1.09,1.34,1.22,2.67-.06,3.98-1.31-.02-2.62-.04-3.94-.07,0-1.34-.02-2.68-.03-4.02Z"/>
      <path class="cls-7" d="M84.92,16.22c-3.18.47-4.53-.88-4.06-4.06,1.33.02,2.66.05,3.99.07.02,1.33.05,2.66.07,3.99Z"/>
      <path class="cls-19" d="M424.3,24c-3.33.69-4.04-1.23-3.92-3.95.02-1.3.05-2.6.07-3.9,3.24.57,4.57-.76,3.99-3.99,7.38-.3,2.75,5.22,3.86,7.95-1.36,1.27-2.13,3.14-4,3.89Z"/>
      <path class="cls-3" d="M428.4,24.18c2.65.02,5.3.05,7.94.07,1.22,1.29,1.13,2.59.06,3.91l.06-.06c-1.35,1.35-2.7,2.71-4.06,4.06l.07-.07c-1.35,1.13-2.7,1.13-4.06,0l.07.07c-2.13-2.27-2.35-4.75-.78-7.41.23-.19.46-.38.69-.57Z"/>
      <path class="cls-15" d="M436.41,28.17c-.02-1.31-.04-2.61-.06-3.91,1.37-.04,2.73-.08,4.1-.11,0,1.34,0,2.68-.01,4.02-1.34,0-2.68,0-4.02.01Z"/>
      <path class="cls-1" d="M424.3,24c-.09-2.76,1.06-4.23,4-3.89.04,1.36.07,2.72.11,4.07,0,0,.07-.05.07-.05-1.26,1.02-2.55,1.28-3.89.14l-.29-.28Z"/>
      <path class="cls-15" d="M416.55,20.27c-.21,1.65.28,3.59-2.33,3.96-2.3.32-1.55,2.38-1.83,3.82-1.28,1.17-2.56,1.17-3.84,0,.87-2.86-2.84-7.95,3.9-7.93,1.37.05,2.73.1,4.1.15Z"/>
      <path class="cls-19" d="M472.5,40.21c-1.38-.03-2.77-.07-4.15-.1-.93-1.05-1.24-2.18-.49-3.46.19-.16.39-.32.59-.48,3.22.5,4.48-.9,3.92-4.05,7.41-.31,2.65,5.34,3.94,8.03-.16.18-.32.36-.49.54-1.23.68-2.32.45-3.32-.47Z"/>
      <path class="cls-3" d="M484.4,40.09c-.02,1.33-.03,2.66-.05,3.99-2.09,2.29-4.59,2.37-7.08.97-2.1-1.18-2.22-3.03-.89-4.98,0,0-.07.07-.07.07,2.7-.02,5.39-.04,8.09-.06Z"/>
      <path class="cls-3" d="M444.52,28.25c2.59,0,5.19,0,7.78,0,1.23,1.03,1.73,2.35,1.6,3.93.17,1.59-.38,2.9-1.52,3.99l.07-.06c-1.15,1.25-2.61,1.65-4.25,1.53-3.58.15-5.39-1.51-5.27-5.14-.07-1.63.23-3.13,1.59-4.23Z"/>
      <path class="cls-15" d="M444.52,28.25c-.06,1.27-.12,2.53-.18,3.8-1.28,1.15-2.55,1.15-3.83,0-.03-1.3-.07-2.6-.1-3.9,1.37.04,2.74.07,4.11.11Z"/>
      <path class="cls-33" d="M452.56,32.13c-.09-1.3-.17-2.59-.26-3.89,1.37-.03,2.74-.07,4.11-.1.02,1.32.04,2.63.06,3.95-1.29,1.27-2.6,1.14-3.92.04Z"/>
      <path class="cls-15" d="M452.56,32.13c1.31-.01,2.61-.03,3.92-.04,1.34.05,2.68.11,4.02.16,2.26,2.65,2.49,5.28-.06,7.89-1.49-.23-3.55.56-3.94-1.79-.44-2.67-2.39-2.13-4.11-2.2.06-1.34.12-2.68.18-4.03Z"/>
      <path class="cls-3" d="M460.44,40.14c.02-2.63.04-5.26.06-7.89,1.26,0,2.53-.01,3.79-.02,1.23,1.03,1.73,2.35,1.6,3.93.17,1.59-.37,2.9-1.52,3.99l.06-.06c-1.35,1.13-2.7,1.13-4.06,0l.06.06Z"/>
      <path class="cls-33" d="M464.54,36.12c-.08-1.3-.17-2.59-.25-3.89,1.37-.03,2.74-.07,4.11-.1.02,1.35.03,2.69.05,4.04,0,0,.08.08.08.08-1.36.93-2.69,1.05-3.99-.13Z"/>
      <path class="cls-15" d="M476.39,40.07c-.16,6.92,5.17,2.94,7.97,4.01,1.33.04,2.66.08,4,.12,1.26,1.07,1.61,2.48,1.51,4.06.1,3.15-1,5.14-4.58,4.74-2.35-.82-2.87-3.52-4.83-4.76-.17-.02-.33-.04-.5-.05q-7.72-.29-7.45-7.98c1.29-.05,2.59-.09,3.88-.14Z"/>
      <path class="cls-33" d="M488.41,48.18c-.02-1.33-.04-2.66-.06-3.98,1.34-.03,2.68-.07,4.02-.1.05,1.28.1,2.55.15,3.83-.16.21-.31.43-.47.64-1.32.82-2.52.57-3.64-.39Z"/>
      <path class="cls-33" d="M496.37,48.09l-.11,4.11c-4.46,1.04-5.02.49-4.03-3.97,0,0,.29-.3.29-.3,1.28.05,2.56.11,3.84.16Z"/>
      <path class="cls-3" d="M492.23,48.23c-.24,2.92,1.09,4.26,4.03,3.97.07,1.26.13,2.51.2,3.77-.03,1.39-.07,2.78-.1,4.16-1.34-.03-2.68-.06-4.02-.09,0,0,.06.06.06.06-1.82-3.08-6.11-1.23-8.05-4.06l.07.07c-1.02-1.01-1.33-2.16-.64-3.48.18-.18.37-.36.55-.54,3,.41,4.46-.79,4.09-3.91,1.27.02,2.55.03,3.82.05Z"/>
      <path class="cls-18" d="M120.86,56.1c.03-1.37.06-2.73.08-4.1,1.98-1.66,3.7-.91,5.21.67,1.14,1.2,2.47,2.19,3.59,3.4,2.36,2.57,4.72,2.8,7.09.03,0-2.67.01-5.35.02-8.02l-.03.03c1.36.02,2.73.05,4.09.07,1.27,1.33,2.61,2.59,3.88,3.91,1.53-.11,3.43.38,3.92-1.77.56-2.41,2.37-2.18,4.11-2.22,1.06-.97,2.53-1.5,3.54-.63,2.5,2.16,5.99,2.38,8.39,4.62,2.94.32,4.36-.92,4.01-3.93-.33-2.92.89-4.35,3.89-4.11,3.9,2.87,7.45,6.25,12.07,8.04,3.13.41,4.33-1.12,4.1-4.08,1.94-1.66,3.64-.85,5.22.57,2.44,2.2,4.65,2.02,6.68-.54l-.06.06c2-2,4.38-2.06,6.91-1.36.47.15.92.39,1.32.69.98.74,1.61,2.9,3.3.79.2-.07.41-.14.61-.21,1.31.03,2.61.06,3.92.09,1.92-2.73,6.07-.96,7.88-3.91,1.37-.03,2.74-.06,4.1-.08,1.46-1.3,3.04-1.23,4.55-.22,5.25,3.49,10.25,3.31,15.43-.38,2.81-2,5.97-1.55,8.79.5,4.49,3.26,9.12,3.11,13.73.4,1.84-1.08,3.49-1.92,5.39-.29,1.37.03,2.74.06,4.1.08,1.81,2.95,5.96,1.18,7.88,3.91,1.31-.03,2.61-.06,3.92-.09.2.08.4.15.6.22,1.55,1.98,2.28.19,3.22-.71.41-.33.85-.58,1.34-.76,2.56-.75,4.96-.66,6.98,1.35l-.06-.06c2.04,2.56,4.24,2.74,6.68.54,1.58-1.42,3.28-2.23,5.22-.57-.23,2.96.97,4.49,4.1,4.08,4.62-1.79,8.17-5.17,12.07-8.04,3-.24,4.22,1.19,3.89,4.11-.34,3.02,1.08,4.25,4.01,3.93,2.4-2.23,5.9-2.45,8.39-4.62,1.01-.88,2.49-.34,3.54.63,1.74.04,3.55-.19,4.11,2.22.5,2.15,2.39,1.66,3.92,1.77,1.28-1.32,2.61-2.58,3.88-3.91,1.36-.02,2.73-.05,4.09-.07l-.03-.03c0,2.67.01,5.35.02,8.02,2.38,2.77,4.72,2.53,7.1-.02,1.24-1.33,2.65-2.48,3.95-3.74,1.45-1.42,3.12-1.82,4.85-.34.03,1.37.06,2.73.08,4.1,2.08,2.45,4.28,2.66,6.7.45,1.57-1.43,3.27-2.21,5.2-.56-.27,3.05,1.11,4.43,4.16,4.16,2.15,2.57,4.25,2.25,6.7.23,2.89-2.38,6.07-3.1,9.25-.32l-.06-.06c1.03,1.48,2.87,2.02,4,3.36,1.3,1.54,1.37,3.16,0,4.74l.06-.06c-1.48,1.03-2.02,2.86-3.36,3.99-1.55,1.3-3.16,1.37-4.74,0l.06.06c-3.89-3.1-4.67-2.93-6.39,1.55-.37.95-.92,1.72-1.6,2.44l.06-.06c-4.5,3.07-8.96,2.54-13.27-.33-1.82-1.21-3.45-2.85-5.41-.32-.2.41-.47.77-.79,1.1-1.41.96-3.07,1.66-3.65,3.5-.26.36-.56.67-.91.94-1.6.71-2.87,1.84-3.99,3.15l.06-.06c-1.37,1.1-2.74,1.1-4.11,0l.06.06c-1.1-1.25-2.28-2.41-3.85-3.07-.35-.24-.66-.53-.93-.86-.74-1.32-1.5-1.65-2.35-.07-.26.34-.57.63-.91.89-1.6.67-2.83,1.83-3.95,3.11l.06-.06c-2.7,2.39-5.4,2.39-8.1,0l.06.06c-1.33-1.77-2.66-1.77-4,0l.06-.06c-1.37,1.1-2.74,1.1-4.11,0l.06.06c-1.33-1.77-2.66-1.77-4,0l.06-.06c-1.91,1.79-3.67,1.03-5.27-.41-2.46-2.2-4.69-2.16-6.77.47l.06-.06c-1.39,1.31-2.74,2.66-4.05,4.05l.06-.06c-2.7,2.39-5.4,2.39-8.1,0l.06.06c-1.42-1.91-3.72-2.74-5.32-4.46-2.47-2.67-4.6-1.93-6.3.98-3.55,1.27-1.66,5.71-4.36,7.47l.06-.06c-2.7,2.39-5.4,2.39-8.1,0l.06.06c-2.64-2.35-5.05-4.53-6.34-8.3-1.28-3.73-3.72-1.34-5.25.81-3.57,1.27-1.69,5.72-4.38,7.49l.06-.06c-1.39,1.31-2.74,2.66-4.05,4.05l.06-.06c-1.37,1.1-2.74,1.1-4.11,0l.06.06c-1.41-1.9-3.71-2.72-5.3-4.43-2.32-2.5-4.62-2.09-6.69.44l.06-.06c-2.7,2.39-5.4,2.39-8.1,0l.06.06c-2.07-2.54-4.37-2.94-6.69-.44-1.59,1.72-3.89,2.53-5.3,4.43l.06-.06c-1.37,1.1-2.74,1.1-4.11,0l.06.06c-1.31-1.39-2.66-2.74-4.05-4.05l.06.06c-2.69-1.78-.82-6.2-4.37-7.48-1.02-1.16-1.51-3.01-3.74-2.45-1.63.41-1.97,1.67-2.1,2.96-.37,3.65-3.8,4.69-5.77,6.97l.06-.06c-2.7,2.39-5.4,2.39-8.1,0l.06.06c-2.63-1.63-.66-5.84-4-7.08-.38-.27-.7-.59-.98-.95-1.24-2.72-3.32-2.62-5.08-.97-1.9,1.78-4.27,2.97-5.93,5l.06-.06c-2.7,2.39-5.4,2.39-8.1,0l.06.06c-1.31-1.39-2.66-2.74-4.05-4.05l.06.06c-2.09-2.63-4.31-2.67-6.77-.47-1.6,1.44-3.36,2.2-5.27.41l.06.06c-1.33-1.77-2.66-1.77-4,0l.06-.06c-1.37,1.1-2.74,1.1-4.11,0l.06.06c-1.33-1.77-2.66-1.77-4,0l.06-.06c-2.7,2.39-5.4,2.39-8.1,0l.06.06c-1.1-1.25-2.28-2.41-3.85-3.07-.35-.24-.66-.53-.93-.86-.74-1.32-1.5-1.65-2.35-.07-.26.34-.57.63-.91.89-1.6.67-2.83,1.83-3.95,3.11l.06-.06c-1.37,1.1-2.74,1.1-4.11,0l.06.06c-1.11-1.25-2.29-2.41-3.86-3.09-.36-.25-.66-.55-.94-.88-.67-1.71-2.07-2.68-3.61-3.5-.35-.31-.64-.67-.88-1.07-1.88-2.75-3.55-1.09-5.38.14-4.34,2.91-8.81,3.45-13.34.36l.06.06c-.68-.72-1.23-1.49-1.6-2.44-1.72-4.48-2.5-4.65-6.39-1.55l.06-.06c-2.3,1.82-4.18,1.02-5.68-1.07-.75-1.04-1.47-2.07-2.42-2.93l.06.06c-1.82-2.3-1.02-4.18,1.07-5.67,1.04-.75,2.07-1.47,2.93-2.42l-.06.06c3.18-2.78,6.36-2.07,9.25.32,2.45,2.02,4.55,2.33,6.7-.23,3.05.27,4.44-1.11,4.16-4.16,1.93-1.65,3.63-.87,5.2.56,2.42,2.21,4.62,2,6.7-.45Z"/>
      <path class="cls-15" d="M276.63,44.1c-.98.13-2.57-.08-2.85.43-3.61,6.61-9.72,2.49-14.59,3.47-1.57.31-1.97-1.18-2.74-2.31-1.89-2.78-5.99-2.37-6.81-.74-2.12,4.22-5.39,3.07-8.45,3.1-3.55.03-7.71,1.38-9.62-3.52-.17-.44-1.85-.29-2.83-.42.15-1.54-.57-3.78,1.92-3.84,2.07-.05,4.48-1.23,6.1,1.68,1.79,3.22,5.4,2.52,8.12.05,2.35-2.13,3.52-5.96,7.8-5.96s5.45,3.82,7.8,5.96c2.72,2.47,6.33,3.17,8.12-.05,1.62-2.91,4.02-1.73,6.1-1.68,2.49.06,1.77,2.29,1.92,3.84Z"/>
      <path class="cls-15" d="M420.46,68.11c-.14-1.53.45-3.48-1.77-3.96-2.5-.54-2.16-2.4-2.23-4.14,2.64.02,5.28.06,7.91.04.98,0,2.65.13,2.84-.3,2.51-5.8,4.08-2.44,6.95-.02,1.95,1.64,2.93,4.13,5.61,5.43,1.88.91-.3,2.95-2.47,2.85-2.9-.13-5.45.02-4.94,4.01l.05-.05c-1.3,0-2.59-.01-3.89-.02-1.49-1.15-2.65-2.66-4.15-3.81-1.31-.02-2.62-.03-3.93-.05Z"/>
      <path class="cls-15" d="M88.91,60.01c-.06,1.74.28,3.6-2.23,4.14-2.22.48-1.63,2.43-1.77,3.96-1.31.02-2.62.03-3.93.05-1.5,1.15-2.66,2.66-4.15,3.81l-3.89.02.05.05c.26-2.89-.86-4.28-3.95-4.03-1.34.11-3.19.64-3.82-1.29-.66-2.04,1.85-2.08,2.23-2.93,1.22-2.75,4.69-3.19,5.55-6.05.53-1.75,2.63-2.06,2.99-1.16,2.3,5.86,7.22,2.71,10.95,3.48.63.13,1.31-.01,1.97-.03Z"/>
      <path class="cls-18" d="M44.46,64c-4.54,2.19-7.3-1.98-10.56-4.51-1.48-1.15-1-3.06.98-3.19,4.1-.27,8.34-.61,12.3.19,2.06.41,3.93,2.99,5.33,4.98.95,1.35-.37,2.44-1.95,2.52-1.81.09-3.63.02-6.11.02Z"/>
      <path class="cls-18" d="M460.75,64.06c-.97,0-1.14.04-1.29,0-2.27-.67-6.53,1.62-6.38-1.98.08-2.01,2.99-5.82,6.84-5.96,3.3-.12,6.6-.02,9.9.02,1.03.01,2.02.3,2.3,1.46.21.84-.07,1.56-.83,2.13-3.36,2.57-6.3,6.16-10.54,4.34Z"/>
      <path class="cls-15" d="M100.83,76.04c2.62,0,5.24.02,7.86,0,1.78-.02,3.52.2,4.31-2.2.94-2.83,3.56-1.69,5.52-1.67,2.73.03,2.24,2.24,2.29,3.99-.96,1.57-2.76,2.31-3.8,3.81-.41,1.31.47,3.19-1.47,3.8-2.03.64-2.22-.99-2.93-2.35-1.03-1.98-2.62-1.91-3.58.16-1.82,3.92-2.82,3.25-4.51-.23-.89-1.83-4.59-1.96-3.69-5.29Z"/>
      <path class="cls-15" d="M384.56,76.15c.45-3.6,5.4-6.12,6.86-3.43,2.52,4.69,6.26,2.93,9.68,3.3,1.13.12,2.29.02,3.44.02.81,4.27-4.38,4.39-5.37,7.62-.26.83-2.23,0-2.71-1.62-.75-2.53-2.38-2.69-3.69-.61-.79,1.26-.91,2.97-2.94,2.33-1.94-.61-1.06-2.49-1.47-3.8-1.04-1.49-2.84-2.23-3.8-3.81Z"/>
      <path class="cls-15" d="M104.8,60.15c-.05,1.43.52,3.27-1.53,3.67-1.91.38-4.91,1.1-5.58-.58-1.93-4.8-5.74-2.67-8.84-3.17-.06-1.28.51-2.96-.91-3.61-1.88-.85-4.56-1.58-2.01-3.76,1.55-1.33,5.13-1.79,6.57.71,1.08,1.87,1.93,2.75,4.02,2.69,1.92-.06,4.03-.46,4.55,2.47.36,2.04,2.38,1.27,3.72,1.57Z"/>
      <path class="cls-15" d="M416.52,60.07c-3.1.51-6.91-1.63-8.84,3.17-.68,1.68-3.67.96-5.58.58-2.04-.4-1.48-2.25-1.53-3.67,1.35-.31,3.36.47,3.72-1.57.52-2.93,2.63-2.41,4.55-2.51,1.44-.08,2.97.21,3.6-1.79,1.22-3.84,4.51-2.36,6.65-1.79,2.06.55,1.88,2.83-.3,3.4-2.61.68-2.31,2.36-2.29,4.18Z"/>
      <path class="cls-15" d="M136.84,56.1c-.13,1.58.38,3.71-2.04,3.82-1.99.09-4.72,1.26-5.72-1.44-1.02-2.79-4.75-2.89-5.33-5.99-.06-.33-1.83-.33-2.81-.49-.03-1.16-.17-2.34-.05-3.49.16-1.51-.78-3.61,1.53-4.19,2.14-.54,1.92,2.23,2.78,2.58,4.82,1.97,5.63,8.89,11.63,9.2Z"/>
      <path class="cls-15" d="M384.43,52c-4.2-.04-5.74,3.77-7.7,6.19-2.03,2.51-4.06,1.78-6.15,1.72-2.42-.07-1.91-2.23-2.04-3.81,4.24,1.11,3.98-4.85,7.55-4.8-.18-3.4,4.7-2.83,4.8-6.15.03-.88,1.23-.98,2.07-.86.96.13,1.44.84,1.46,1.73.05,1.99.01,3.99.01,5.98Z"/>
      <path class="cls-3" d="M180.88,12.29c5.26,0,10.53,0,15.79,0,1.22,1.28,1.13,2.59.06,3.91l.07-.07c-1.31,1.33-2.66,2.62-3.94,3.99h-8.16c-1.28-1.36-2.63-2.66-3.94-3.99l.07.06c-1.07-1.32-1.16-2.62.06-3.91Z"/>
      <path class="cls-3" d="M308.7,12.29c5.26,0,10.53,0,15.79,0,1.22,1.28,1.13,2.59.06,3.91l.07-.06c-1.31,1.33-2.66,2.62-3.94,3.99h-8.16c-1.28-1.36-2.63-2.66-3.94-3.99l.07.07c-1.07-1.32-1.16-2.62.06-3.91Z"/>
      <path class="cls-15" d="M16.96,48.18c.02-1.33.04-2.65.06-3.98,1.33-.04,2.66-.08,4-.13,1.96-2.72,6.2-.91,7.97-4.01l-.07.06c1.34-.98,2.67-1.29,3.95.09.04.8,0,1.62.12,2.41.58,4.02-.68,6.22-5.18,5.51-.93-.15-1.93.06-2.89.11-1.53,1.05-2.25,2.9-3.87,3.86-3,.41-4.46-.79-4.09-3.91Z"/>
      <path class="cls-15" d="M212.74,92.06c.12-1.59-.38-3.51,1.92-4.03,2.28-.51,2.15-2.31,2.04-3.93-.2-2.96.94-4.14,4.01-4.14,3.02,0,4.36,1.04,4,4.07-.1.21-.2.42-.3.63-1.23,1.04-2.51,2.04-3.55,3.29-.05,1.15-.01,2.3-.16,3.44-.2,1.51.79,3.57-1.29,4.31-2.41.86-2.32-1.39-3.07-2.75-.75-1.35-2.33-.83-3.61-.87Z"/>
      <path class="cls-15" d="M280.65,84.02c-.35-3.02.98-4.07,4-4.07,3.07,0,4.21,1.18,4.01,4.14-.11,1.62-.24,3.42,2.04,3.93,2.3.52,1.8,2.43,1.92,4.03-1.54.11-3.49-.61-3.95,1.78-.31,1.6-1.14,2.34-2.74,1.88-1.47-.43-1.21-1.77-1.27-2.87-.09-1.64-.11-3.28-.17-4.92-1.04-1.25-2.32-2.24-3.55-3.28-.1-.21-.2-.42-.29-.63Z"/>
      <path class="cls-19" d="M160.78,103.93h-11.92c-2.42-2.63-2.42-5.26,0-7.88h11.92c2.42,2.63,2.42,5.26,0,7.88Z"/>
      <path class="cls-19" d="M356.51,103.93h-11.92c-2.42-2.63-2.42-5.26,0-7.88h11.92c2.42,2.63,2.42,5.26,0,7.88Z"/>
      <path class="cls-15" d="M164.78,52.09c-3.47-.05-7.35,1.08-9.11-3.58-.16-.43-1.85-.29-2.83-.41.01-2.66.03-5.31.04-7.97l-.05.05c4.11-1.63,4.82,2.99,6.42,4.51,1.99,1.88,6.37,3.09,5.53,7.4Z"/>
      <path class="cls-15" d="M184.76,52.09c-7.12,0-11.13-2.67-12.07-8.04.06-1.28.12-2.56.18-3.84,1.28-1.2,2.58-1.14,3.9-.08h0c1.33,1.34,2.74,2.6,3.93,4.07.28,1.45-.46,3.49,1.88,3.84,2.65.4,2.08,2.36,2.17,4.05Z"/>
      <path class="cls-15" d="M200.76,48.04c-.09,1.78.31,4.01-2.46,3.95-1.96-.04-4.6,1.17-5.47-1.87-.64-2.25-2.38-1.92-3.97-2.11-.03-.82-.19-1.67-.05-2.47.31-1.79-1.13-4.31,1.48-5.17,2.41-.8,2.15,2.75,3,2.82,3.52.29,3.18,6.17,7.48,4.84Z"/>
      <path class="cls-15" d="M188.77,88.07c.49-3.42,4.82-7.84,7.68-8.06,3.08-.23,4.76.76,4.25,4.12-2.69,1.93-1.31,5.92-3.98,7.87-1.49-.18-3.5.57-3.88-1.78-.43-2.65-2.35-2.12-4.07-2.15Z"/>
      <path class="cls-15" d="M236.71,96.05c.48-3.4,4.81-7.83,7.65-8.06,3.05-.24,4.76.72,4.34,4.07-2.96-.46-4.25.72-4.05,3.79.09,1.34.64,3.17-1.25,3.84-2,.7-2.42-.78-2.9-2.31-.62-1.95-2.41-1.19-3.79-1.32Z"/>
      <path class="cls-15" d="M208.76,48.12c-2.69,0-5.38-.01-8.07-.02.05-3.96.09-7.92.14-11.89,1.28-1.2,2.58-1.14,3.9-.08h0c1.33,1.34,2.74,2.6,3.93,4.07.06,1.28.12,2.56.18,3.84.99,1.38,1.22,2.74-.09,4.08Z"/>
      <path class="cls-15" d="M256.68,92.06c.11-1.74-.34-3.95,2.37-3.94,1.94,0,4.61-1.18,5.47,1.69.78,2.57,5.44,2.43,4.14,6.24-1.54.1-3.48-.61-3.95,1.78-.26,1.29-.81,2.15-2.27,1.98-1.89-.22-1.77-1.71-1.72-2.98.1-2.86.03-5.47-4.03-4.77Z"/>
      <path class="cls-15" d="M304.67,48.1c-2.69,0-5.38.01-8.07.02-1.31-1.33-1.08-2.7-.09-4.08l.18-3.84c1.19-1.47,2.6-2.73,3.93-4.07h0c1.32-1.06,2.63-1.12,3.9.08.05,3.96.09,7.92.14,11.89Z"/>
      <path class="cls-15" d="M304.62,84.02c.08-1.75-.31-3.93,2.4-3.9,1.94.03,4.59-1.16,5.45,1.71.77,2.57,5.42,2.42,4.13,6.23-1.71.03-3.64-.5-4.07,2.15-.38,2.35-2.39,1.6-3.88,1.78-2.67-1.73-.91-5.73-3.78-7.36-.09-.2-.17-.41-.25-.62Z"/>
      <path class="cls-15" d="M328.58,84.08c.11-1.72-.35-3.94,2.35-3.94,1.94,0,4.58-1.18,5.48,1.62.77,2.4,2.43,2.22,4.22,2.26.79,4.29-3.67,5.12-5.54,7.46-1.45,1.81-2.58-1.26-2.47-3.07.18-2.97-.48-4.93-4.03-4.33Z"/>
      <path class="cls-15" d="M316.52,48.01c-1.59.19-3.33-.14-3.97,2.11-.87,3.04-3.51,1.83-5.47,1.87-2.77.06-2.37-2.17-2.46-3.95,4.36.6,4.87-4.2,7.82-5.71.78-.4.99-2.38,2.68-2,1.78.41,1.42,1.98,1.47,3.24.05,1.48-.03,2.97-.06,4.45Z"/>
      <path class="cls-15" d="M332.68,44.04c-.94,5.37-4.95,8.05-12.07,8.04.09-1.69-.48-3.65,2.17-4.05,2.34-.35,1.6-2.39,1.88-3.84,1.19-1.47,2.6-2.73,3.93-4.07h0c1.32-1.06,2.63-1.12,3.9.08.06,1.28.12,2.56.18,3.84Z"/>
      <path class="cls-15" d="M352.53,48.09c-.98.12-2.67-.02-2.83.41-1.76,4.66-5.64,3.53-9.11,3.58-.84-4.31,3.54-5.52,5.53-7.4,1.6-1.51,2.31-6.14,6.42-4.51l-.05-.05c.01,2.66.03,5.31.04,7.97Z"/>
      <path class="cls-15" d="M164.75,84.02c1.78-.03,3.45.14,4.22-2.26.9-2.81,3.54-1.62,5.48-1.63,2.7,0,2.24,2.21,2.35,3.94-3.01-.47-4.25.77-4.05,3.83.09,1.34.64,3.2-1.31,3.82-2.05.65-2.1-1.19-2.93-2.38-1.24-1.77-4.67-1.97-3.75-5.33Z"/>
      <path class="cls-18" d="M129.85,39.94c-5.19.86-5.61-4.03-8.62-5.31-.61-.26-.07-2.02,1.09-2.2,2.05-.33,4.28-1.02,6.06.71.77.75.5,2.31,1.83,2.76,1.46.49,3.02.97,2.21,3.01-.64,1.61-2.26.94-2.58,1.04Z"/>
      <path class="cls-18" d="M376.88,40.19c-1.84-.23-3.4.22-3.98-1.4-.61-1.67.82-1.98,1.84-2.85,2.11-1.8,3.35-4.83,7.01-3.82.94.26,2.04.15,2.42,1.31.44,1.35-.11,2.33-1.46,2.6-2.68.55-2.4,5.69-5.82,4.15Z"/>
      <path class="cls-19" d="M84.92,36.13c5.01-1.51,7.92,2.09,11.24,4.64.72.55.82,1.57.27,2.25-1.53,1.86-4.52,1.69-5.41.81-2.28-2.27-6.31-3.43-6.1-7.71h0Z"/>
      <path class="cls-19" d="M420.45,36.13c-.71,4.58-5.51,8.61-9.42,7.95-1.02-.17-2.04-.29-2.3-1.49-.19-.85.07-1.57.84-2.15,3.23-2.46,6.1-5.77,10.88-4.31h0Z"/>
      <path class="cls-19" d="M240.72,4.17c.02,1.3.05,2.6.07,3.89,1.13,1.52,2.65,2.69,3.84,4.16l.16-.12c1.03,1.36,1.05,2.71-.04,4.05h-8.07c-1.09-1.31-1.13-2.66-.12-4.03.05-1.31.28-2.64.12-3.91-.41-3.2.82-4.57,4.05-4.04Z"/>
      <path class="cls-15" d="M120.86,56.1c-.13,1.58.38,3.73-2.02,3.81-2.08.07-4.9,1.41-5.91-1.83-.69-2.22-2.4-1.89-3.97-2.08,0-1.3-.01-2.59-.02-3.89l-.05.05c3.21.32,7.31-1.78,8.8,3.37.13.46,2.07.4,3.17.58Z"/>
      <path class="cls-15" d="M396.41,55.99c-1.58.2-3.29-.13-3.97,2.09-1,3.24-3.83,1.9-5.91,1.83-2.4-.08-1.89-2.23-2.02-3.81,1.1-.18,3.04-.12,3.17-.58,1.49-5.16,5.59-3.05,8.8-3.37l-.05-.05c0,1.3-.01,2.59-.02,3.89Z"/>
      <path class="cls-19" d="M264.59,8.07c.02-1.3.05-2.6.07-3.89,3.23-.53,4.45.84,4.05,4.04-.16,1.28.07,2.61.12,3.91,1.01,1.37.97,2.72-.12,4.03h-8.07c-1.1-1.34-1.08-2.69-.04-4.05l.16.12c1.19-1.47,2.7-2.64,3.84-4.16Z"/>
      <path class="cls-15" d="M180.73,88.01h8.1c0,.16.03.34-.03.49-.87,2.38,1.81,6.85-1.91,6.86-1.95,0-6.28-3.03-6.17-7.35Z"/>
      <path class="cls-15" d="M316.54,88.01c2.7,0,5.4,0,8.1,0,.8,4.27-4.36,4.42-5.39,7.63-.25.79-2.47.06-2.57-1.71-.11-1.97-.1-3.95-.14-5.92Z"/>
      <path class="cls-15" d="M204.69,92h8.1c0,.16.03.34-.03.49-.87,2.38,1.81,6.85-1.91,6.86-1.95,0-6.28-3.03-6.17-7.35Z"/>
      <path class="cls-15" d="M392.47,24.12c.51,3.37-1.2,4.08-4.23,4.1-3.18.02-3.97-1.43-3.74-4.18.11-1.29.03-2.6.04-3.91.16-.18.33-.37.49-.55,1.16-.67,2.32-.61,3.47.03,1.41,1.13,2.1,2.94,3.7,3.9.09.2.19.41.28.61Z"/>
      <path class="cls-15" d="M292.58,92c2.7,0,5.4,0,8.1,0,.8,4.27-4.36,4.42-5.39,7.63-.25.79-2.47.06-2.57-1.71-.11-1.97-.1-3.95-.14-5.92Z"/>
      <path class="cls-15" d="M208.66,12.29c2.72,0,5.44,0,8.16,0,.7,4.21-4.39,4.32-5.41,7.51-.25.77-2.46.09-2.58-1.66-.13-1.95-.12-3.9-.18-5.85Z"/>
      <path class="cls-19" d="M32.87,40.21c-1.32-.03-2.64-.06-3.95-.09.02-1.48.25-2.99.03-4.43-.51-3.41,1.38-3.88,4.05-3.58-.59,3.22.79,4.52,3.97,4.08,1.28,1.29,1.06,2.6.05,3.92-1.38.03-2.77.07-4.15.1Z"/>
      <path class="cls-15" d="M288.55,12.29c2.72,0,5.44,0,8.16,0-.03.65.04,1.32-.1,1.95-.42,1.91,1.22,4.61-1.44,5.62-2.7,1.02-1.99-2.64-3.32-3.1-2.33-.81-3.6-1.93-3.31-4.46Z"/>
      <path class="cls-15" d="M44.87,32.25c1.34-.05,2.68-.1,4.03-.15,1.21-1,2.52-1.32,3.97-.53,1.27,1.12,1.37,2.45.71,3.91-.2.21-.4.41-.6.62-1.49.23-3.55-.56-3.94,1.79-.44,2.67-2.39,2.13-4.1,2.2-.23-.19-.45-.37-.68-.56-1.52-2.57-1.46-5.01.62-7.28Z"/>
      <path class="cls-18" d="M64.86,32.04q.21,8.2-8,7.99c-1-1.1-1.22-2.34-.67-3.72,1.44-1.83,3.1-3.45,4.9-4.92,1.39-.57,2.65-.35,3.76.66Z"/>
      <path class="cls-18" d="M440.51,32.04c1.28,0,2.55,0,3.83,0-.26,3.04,1.11,4.44,4.16,4.16,1.07,1.27,1.06,2.54,0,3.82q-8.2.21-8-7.99Z"/>
      <path class="cls-15" d="M180.88,12.29c-.02,1.3-.04,2.6-.06,3.91-1.72.07-3.66-.48-4.11,2.19-.39,2.36-2.43,1.58-3.94,1.74-.23-.19-.45-.37-.68-.56-1.52-2.57-1.46-5.01.62-7.28,2.72,0,5.45,0,8.17,0Z"/>
      <path class="cls-15" d="M324.56,16.19c-.02-1.3-.04-2.6-.06-3.91,2.72,0,5.45,0,8.17,0,2.07,2.27,2.14,4.71.62,7.29-.23.18-.46.37-.69.55-1.51-.16-3.54.62-3.94-1.74-.45-2.67-2.39-2.12-4.11-2.19Z"/>
      <path class="cls-15" d="M224.64,44.19c.14,6.87-5.18,2.75-7.88,3.91,0-1.14-.12-2.29,0-3.41.17-1.5-.78-3.53,1.29-4.26,2.38-.84,2.34,1.33,3.04,2.72.7,1.37,2.31.82,3.54,1.04Z"/>
      <path class="cls-15" d="M288.62,48.09c-2.7-1.16-8.02,2.96-7.88-3.91,1.48-.28,3.48.42,3.88-1.95.27-1.6,1.14-2.3,2.72-1.85,1.46.42,1.23,1.74,1.27,2.83.06,1.62,0,3.25,0,4.88Z"/>
      <path class="cls-7" d="M380.48,12.14c2.78.01,5.59.23,8.35-.02,3.27-.29,4.04,1.26,3.67,4.05-.16.21-.32.42-.48.64-1.11.94-2.46.88-3.79.9-1.33.32-2.66.14-3.99-.02-1.49.12-2.65-.49-3.59-1.59-.06-1.32-.12-2.64-.18-3.96Z"/>
      <path class="cls-15" d="M144.8,20.12c2.93.38,4.56-.57,3.9-3.83,1.39-.03,2.79-.06,4.18-.09-.02,1.3-.1,2.6-.05,3.9.09,2.33-.15,4.1-3.28,4.11-3,.01-5.26-.27-4.75-4.08Z"/>
      <path class="cls-15" d="M232.69,16.14c0,1.3-.07,2.61.04,3.91.23,2.75-.57,4.19-3.74,4.18-3.03-.01-4.75-.73-4.23-4.1.1-.21.2-.42.29-.63,2.32-1.45,3.09-5.76,7.2-3.9.15.18.3.36.44.54Z"/>
      <path class="cls-15" d="M84.86,68.05c1.74.06,3.61-.28,4.14,2.22.48,2.21,2.43,1.63,3.96,1.77.47,3.83-1.84,4.06-4.81,4.05-3.15-.01-3.32-1.83-3.25-4.14.04-1.3-.03-2.6-.05-3.9Z"/>
      <path class="cls-15" d="M92.9,72.1c-.41-3.28,1.23-4.13,4.27-4.12,3.15.01,3.92,1.51,3.73,4.22-.09,1.29-.01,2.59-.01,3.88-1.67-.19-3.66.37-4.08-2.28-.38-2.35-2.4-1.59-3.91-1.71Z"/>
      <path class="cls-15" d="M120.83,20.13c0,1.3-.06,2.61.04,3.91.23,2.75-.56,4.2-3.74,4.18-3.03-.01-4.75-.73-4.24-4.1.09-.19.18-.37.27-.56,1.11-.95,2.23-1.88,2.82-3.28.29-.36.64-.64,1.03-.88,1.15-.51,2.28-.51,3.36.18.15.18.3.37.45.55Z"/>
      <path class="cls-15" d="M404.48,76.09c0-1.3.08-2.6-.01-3.88-.19-2.71.58-4.21,3.73-4.22,3.05-.01,4.68.84,4.27,4.12-1.51.12-3.53-.64-3.91,1.71-.43,2.65-2.41,2.09-4.08,2.28Z"/>
      <path class="cls-15" d="M412.42,72.04c1.53-.14,3.48.45,3.96-1.77.54-2.5,2.4-2.16,4.14-2.22-.02,1.3-.09,2.6-.05,3.9.08,2.31-.1,4.13-3.25,4.14-2.97.01-5.28-.21-4.81-4.05Z"/>
      <path class="cls-15" d="M280.62,20.13c.51,3.37-1.2,4.08-4.23,4.1-3.18.02-3.97-1.42-3.74-4.18.11-1.29.03-2.6.04-3.91.15-.18.3-.36.45-.53,4.12-1.87,4.88,2.45,7.2,3.89.1.21.19.42.29.63Z"/>
      <path class="cls-15" d="M360.52,20.13c.5,3.33-1.16,4.09-4.2,4.09-3.11,0-4.01-1.32-3.78-4.12.11-1.29-.02-2.59-.04-3.89.17-.2.34-.4.51-.6,1.32-.77,2.5-.45,3.61.46l-.06.12c1.14,1.22,2.46,2.25,3.71,3.35.09.19.17.39.25.58Z"/>
      <path class="cls-15" d="M368.44,16.28c1.32-.06,2.63-.12,3.95-.19.05,1.3.04,2.61.15,3.91.24,2.73-.5,4.24-3.72,4.22-3.03-.02-4.77-.71-4.25-4.09.1-.21.2-.41.3-.62,1.22-1.04,2.5-2.03,3.57-3.23Z"/>
      <path class="cls-31" d="M160.78,103.93c0-2.63,0-5.26,0-7.88,3.03-.41,4.09.93,4.09,3.94s-1.06,4.35-4.09,3.94Z"/>
      <path class="cls-7" d="M400.46,16.2c.01-1.47.18-2.95,0-4.4-.41-3.28,1.3-3.98,4.05-3.59,0,0-.05-.05-.05-.05,1.09,1.31,1.21,2.66.17,4.06.29,3.1-1.08,4.45-4.18,3.98Z"/>
      <path class="cls-15" d="M76.9,24.13c1.3.05,2.59.1,3.89.14.02,2.61.04,5.23.07,7.84l.05-.05c-1.34.03-2.68.06-4.01.09,0-2.68,0-5.35,0-8.03Z"/>
      <path class="cls-15" d="M424.59,24.28c1.3-.05,2.59-.1,3.89-.14,0,2.68,0,5.35,0,8.03-1.34-.03-2.68-.06-4.01-.09l.05.05c.02-2.61.04-5.22.07-7.84Z"/>
      <path class="cls-15" d="M12.97,60.1c-.11-6.9,5.27-2.91,8.05-4.06.11,6.89-5.26,2.92-8.05,4.06Z"/>
      <path class="cls-15" d="M484.34,56.04c1.45.01,2.91.16,4.34.01,3.15-.33,3.95,1.35,3.71,4.05-1.45-.01-2.91-.15-4.34,0-3.15.33-3.95-1.35-3.71-4.05Z"/>
      <path class="cls-18" d="M57.01,68.04c1.52.22,3.72-.4,3.63,2.09-.09,2.42-2.27,1.86-3.77,1.87-1.52,0-3.7.46-3.62-2.02.08-2.43,2.28-1.7,3.76-1.94Z"/>
      <path class="cls-18" d="M448.62,72.06c-1.45-.25-3.65.56-3.89-1.79-.25-2.49,1.92-2.19,3.47-2.17,1.5.03,3.68-.62,3.92,1.73.26,2.5-1.93,2.04-3.5,2.23Z"/>
      <path class="cls-15" d="M280.56,12.29c1.39,0,2.78,0,4.17,0-.03,1.49-.19,2.99-.07,4.47.26,3.14-1.56,3.6-4.04,3.37,0,0,.06.06.06.06-2.33-2.6-2.51-5.23-.12-7.9Z"/>
      <path class="cls-15" d="M144.77,84.02h8.1c.41,3.31-1.28,4.05-4.29,4.08-3.12.03-4.04-1.32-3.81-4.08Z"/>
      <path class="cls-19" d="M196.72,92c.01-1.45.18-2.92.01-4.35-.36-3.16,1.12-4.07,3.97-3.52,0,0-.04-.09-.04-.09,2.47,2.61,2.49,5.26.13,7.95-1.36,0-2.72,0-4.08,0Z"/>
      <path class="cls-15" d="M200.8,92c-.04-2.65-.09-5.3-.13-7.95,6.9-.14,3.02,5.2,4.09,8.02-1.32-.02-2.64-.04-3.95-.06Z"/>
      <path class="cls-15" d="M224.72,84.02c6.81-.05,2.92,5.23,4,8.03-3.17.42-4.35-1.15-4.14-4.12-1.1-1.36-.89-2.66.15-3.93l-.02.02Z"/>
      <path class="cls-15" d="M276.65,92.06c1.08-2.81-2.81-8.08,4-8.03l-.02-.02c1.04,1.27,1.25,2.58.15,3.93.22,2.97-.97,4.54-4.14,4.12Z"/>
      <path class="cls-15" d="M300.62,92.06c1.08-2.81-2.81-8.08,4-8.03l-.02-.02c2.39,2.67,2.4,5.34-.03,7.99l-3.95.06Z"/>
      <path class="cls-19" d="M304.58,92c0-2.66.02-5.33.03-7.99,7.17-.28,2.7,5.32,4.05,7.99-1.36,0-2.72,0-4.08,0Z"/>
      <path class="cls-15" d="M352.5,84.02h8.1c.41,3.31-1.28,4.05-4.29,4.08-3.12.03-4.04-1.32-3.81-4.08Z"/>
      <path class="cls-18" d="M132.92,91.99c1.52.22,3.73-.38,3.62,2.11-.11,2.41-2.29,1.84-3.79,1.85-1.52.01-3.7.45-3.6-2.04.1-2.43,2.3-1.68,3.78-1.92Z"/>
      <path class="cls-15" d="M248.64,92h8.1c.41,3.31-1.28,4.05-4.29,4.08-3.12.03-4.04-1.32-3.81-4.08Z"/>
      <path class="cls-18" d="M372.47,96.01c-1.51-.23-3.72.41-3.64-2.08.08-2.42,2.26-1.88,3.76-1.89,1.52,0,3.7-.46,3.63,2.02-.07,2.45-2.28,1.69-3.75,1.95Z"/>
      <path class="cls-31" d="M148.86,96.04c0,2.63,0,5.26,0,7.88-3.03.41-4.09-.93-4.09-3.94s1.06-4.35,4.09-3.94Z"/>
      <path class="cls-31" d="M344.6,96.04c0,2.63,0,5.26,0,7.88-3.03.41-4.09-.93-4.09-3.94s1.06-4.35,4.09-3.94Z"/>
      <path class="cls-31" d="M356.51,103.93c0-2.63,0-5.26,0-7.88,3.03-.41,4.09.93,4.09,3.94s-1.06,4.35-4.09,3.94Z"/>
      <path class="cls-15" d="M256.66,16.14c.51,3.34-1.17,4.08-4.21,4.1-3.11.01-4.09-1.27-3.73-4.1.17-.21.34-.42.5-.64,2.31-1.4,4.63-1.4,6.94,0,.17.21.33.43.5.65Z"/>
      <path class="cls-7" d="M392.49,16.17c2.68-.01,5.35-.02,8.03-.04.44,3.05-.8,4.5-3.94,4.14-1.11.91-2.32,1.27-3.71.69-.49-.26-.87-.63-1.14-1.11-.6-1.41-.23-2.61.77-3.69h0Z"/>
      <path class="cls-15" d="M220.64,12.29c1.39,0,2.78,0,4.17,0,2.39,2.67,2.2,5.3-.12,7.9,0,0,.06-.06.06-.06-6.87.27-2.9-5.14-4.11-7.84Z"/>
      <path class="cls-15" d="M64.86,32.04c-1.27,0-2.55,0-3.82,0-1.31-1.21-1.22-2.48-.18-3.79,1.37-.04,2.74-.08,4.11-.12-.03,1.3-.07,2.6-.1,3.9Z"/>
      <path class="cls-15" d="M68.9,28.1c3.09-.39,4.45.97,4.06,4.06-3.09.39-4.45-.96-4.06-4.06Z"/>
      <path class="cls-18" d="M92.98,28.05c1.28,0,2.56,0,3.84,0-.1,1.64.64,4-2.15,3.8-2.31-.17-1.59-2.31-1.68-3.8Z"/>
      <path class="cls-18" d="M408.56,28.05c1.28,0,2.56,0,3.84,0-.1,1.64.64,4-2.15,3.8-2.31-.17-1.59-2.31-1.68-3.8Z"/>
      <path class="cls-15" d="M432.41,32.16c-.39-3.09.97-4.44,4.06-4.06.39,3.09-.96,4.44-4.06,4.06Z"/>
      <path class="cls-15" d="M72.9,32.1c1.35,0,2.7,0,4.06,0-.28,1.57.66,4.05-2.27,3.83-2.45-.18-1.5-2.4-1.79-3.83Z"/>
      <path class="cls-18" d="M80.85,32.11c3.01-.34,4.43.94,4.07,4.02,0,0,0,0,0,0-3.08.37-4.36-1.05-4.02-4.06,0,0-.05.05-.05.05Z"/>
      <path class="cls-18" d="M204.74,36.13c-1.3.03-2.6.05-3.91.08.11-1.54-.65-3.76,1.88-3.81,2.56-.05,1.83,2.21,2.02,3.74Z"/>
      <path class="cls-18" d="M304.54,36.21c-1.3-.03-2.6-.05-3.9-.08.19-1.53-.53-3.79,2.02-3.74,2.53.05,1.77,2.27,1.88,3.81Z"/>
      <path class="cls-18" d="M424.47,32.07c.34,3.01-.94,4.43-4.02,4.06,0,0,0,0,0,0-.37-3.08,1.05-4.35,4.07-4.02,0,0-.05-.05-.05-.05Z"/>
      <path class="cls-15" d="M428.42,32.1c1.35,0,2.7,0,4.06,0-.28,1.57.66,4.05-2.27,3.83-2.45-.18-1.5-2.4-1.79-3.83Z"/>
      <path class="cls-15" d="M37.02,40.11c-.02-1.31-.03-2.61-.05-3.92,0,0-.03-.16-.03-.16,1.23-.99,2.54-1.27,3.97-.47,1.25,1.12,1.35,2.45.69,3.91-.2.2-.4.41-.6.61l-3.98.02Z"/>
      <path class="cls-15" d="M56.87,36.21c0,1.27,0,2.55,0,3.82-3.21.58-4.28-.96-3.88-3.94,0,0-.06.06-.06.06,1.33-1.02,2.65-1.31,3.95.06Z"/>
      <path class="cls-18" d="M152.89,40.13c-1.51-.23-3.58.53-3.83-1.98-.12-1.17.64-1.92,1.81-1.81,2.51.25,1.75,2.32,1.98,3.83,0,0,.05-.05.05-.05Z"/>
      <path class="cls-18" d="M176.78,40.12c-1.3.03-2.6.05-3.91.08.11-1.54-.65-3.76,1.88-3.81,2.56-.05,1.83,2.21,2.02,3.74Z"/>
      <path class="cls-18" d="M208.67,40.2c-2.95.23-4.31-1.09-3.93-4.07,3.09-.36,4.42.98,3.93,4.07Z"/>
      <path class="cls-18" d="M300.63,36.13c.38,2.98-.97,4.3-3.93,4.07-.49-3.09.84-4.43,3.93-4.07Z"/>
      <path class="cls-18" d="M332.5,40.2c-1.3-.03-2.6-.05-3.9-.08.19-1.53-.53-3.79,2.02-3.74,2.53.05,1.77,2.27,1.88,3.81Z"/>
      <path class="cls-18" d="M352.54,40.18c.23-1.51-.53-3.58,1.98-3.83,1.17-.12,1.93.64,1.81,1.81-.25,2.51-2.33,1.75-3.83,1.98,0,0,.05.05.05.05Z"/>
      <path class="cls-15" d="M448.51,40.03c0-1.27,0-2.55,0-3.82,1.31-.04,2.63-.08,3.94-.12.29,2.92-.7,4.55-3.94,3.94Z"/>
      <path class="cls-15" d="M464.54,36.12c1.33.04,2.66.08,3.99.13-.06,1.29-.11,2.58-.17,3.86-1.33.01-2.66.02-3.99.04.06-1.34.11-2.68.17-4.03Z"/>
      <path class="cls-15" d="M44.94,40.09c-.2,1.6.71,4.03-2.21,3.82-2.45-.18-1.52-2.37-1.73-3.82,0,0-.06.06-.06.06,1.35-1.13,2.71-1.13,4.06,0l-.06-.06Z"/>
      <path class="cls-18" d="M180.7,44.19c-2.95.23-4.31-1.09-3.93-4.07,3.09-.36,4.42.98,3.93,4.07Z"/>
      <path class="cls-18" d="M328.6,40.12c.38,2.98-.97,4.3-3.93,4.07-.49-3.09.84-4.43,3.93-4.07Z"/>
      <path class="cls-15" d="M460.38,40.08c1.35,0,2.7,0,4.06,0-.28,1.57.66,4.05-2.27,3.83-2.45-.18-1.5-2.4-1.79-3.83Z"/>
      <path class="cls-18" d="M136.86,48.08c-1.51-.18-3.55.54-3.78-1.96-.11-1.16.64-1.91,1.8-1.8,2.5.24,1.78,2.27,1.96,3.78,0,0,.03-.03.03-.03Z"/>
      <path class="cls-18" d="M208.76,48.12c.03-1.36.06-2.72.08-4.08,2.92-.27,4.19,1.11,3.99,3.96,0,0-.19.18-.19.18-1.34,1.13-2.65.93-3.93-.11l.04.04Z"/>
      <path class="cls-18" d="M296.52,44.04c.03,1.36.06,2.72.09,4.08,0,0,.04-.04.04-.04-1.28,1.05-2.58,1.24-3.93.11,0,0-.19-.18-.19-.18-.2-2.86,1.07-4.24,3.99-3.96Z"/>
      <path class="cls-18" d="M368.54,48.11c.18-1.51-.54-3.54,1.96-3.78,1.16-.11,1.91.64,1.8,1.8-.24,2.5-2.27,1.78-3.78,1.96,0,0,.03.03.03.03Z"/>
      <path class="cls-19" d="M21.05,52.09c-.49-3.06.54-4.61,3.87-3.86.02,1.3.05,2.59.07,3.89-1.36,1.08-2.69,1.04-4-.1l.06.07Z"/>
      <path class="cls-18" d="M108.94,52.1c-1.51-.23-3.58.53-3.83-1.98-.12-1.17.64-1.92,1.81-1.81,2.51.25,1.75,2.32,1.98,3.83,0,0,.05-.05.05-.05Z"/>
      <path class="cls-15" d="M144.81,52.08c-2.93.32-4.41-.8-3.89-3.91,3.18-.57,4.28.93,3.89,3.91Z"/>
      <path class="cls-15" d="M364.45,48.18c.53,3.11-.96,4.22-3.89,3.91-.39-2.98.7-4.48,3.89-3.91Z"/>
      <path class="cls-18" d="M396.48,52.15c.23-1.51-.53-3.58,1.98-3.83,1.17-.12,1.93.64,1.81,1.81-.25,2.51-2.33,1.75-3.83,1.98,0,0,.05.05.05.05Z"/>
      <path class="cls-19" d="M480.45,48.24c3.33-.75,4.35.79,3.87,3.86,0,0,.06-.07.06-.07-1.3,1.14-2.64,1.18-4,.1.02-1.3.05-2.59.07-3.89Z"/>
      <path class="cls-15" d="M20.99,52.03c1.33.03,2.66.07,4,.1.46,3.15-1.02,4.33-4.02,3.98,0-1.36.02-2.72.03-4.08Z"/>
      <path class="cls-15" d="M480.39,52.13c1.33-.03,2.66-.07,4-.1,0,1.36.02,2.72.03,4.08-3,.35-4.48-.84-4.02-3.98Z"/>
      <path class="cls-18" d="M76.83,71.97c-.19-2.98,1.07-4.39,4.15-3.81.23,3.02-1.14,4.3-4.15,3.81Z"/>
      <path class="cls-18" d="M424.39,68.16c3.08-.58,4.34.82,4.15,3.81-3.01.5-4.38-.79-4.15-3.81Z"/>
      <path class="cls-18" d="M72.94,71.98c-.23,1.51.53,3.58-1.98,3.83-1.17.12-1.93-.64-1.81-1.81.25-2.51,2.33-1.75,3.83-1.98,0,0-.05-.05-.05-.05Z"/>
      <path class="cls-18" d="M432.38,72.03c1.51.23,3.58-.53,3.83,1.98.12,1.17-.64,1.92-1.81,1.81-2.51-.25-1.75-2.32-1.98-3.83,0,0-.05.05-.05.05Z"/>
      <path class="cls-19" d="M117.01,79.95c-.7-3.23.64-4.42,3.8-3.81,0,0-.04-.09-.04-.09,1.1.98,1.35,2.12.66,3.44-.19.17-.38.35-.57.52-1.29-.02-2.57-.05-3.86-.07Z"/>
      <path class="cls-19" d="M384.56,76.15c3.16-.61,4.5.58,3.8,3.81-1.29.02-2.57.05-3.86.07-.19-.17-.38-.35-.57-.52-.68-1.32-.44-2.46.66-3.44l-.04.09Z"/>
      <path class="cls-19" d="M124.9,84.01c-3.04.38-4.42-.91-4.03-3.99h-.01c1.35-1.05,2.68-1.1,3.98.1l-.07-.07c1.18,1.28,1.2,2.6.13,3.96Z"/>
      <path class="cls-15" d="M124.9,84.01c-.04-1.32-.09-2.64-.13-3.96,3.1-.42,4.47.92,4.09,4.02-1.32-.02-2.64-.04-3.95-.06Z"/>
      <path class="cls-15" d="M132.85,84.08c-.37-3.1.97-4.47,4.09-3.99,1.18,1.35.92,2.66-.14,3.93-1.32.02-2.64.04-3.96.06Z"/>
      <path class="cls-19" d="M136.8,84.01c.05-1.31.09-2.62.14-3.93,0,0-.07.03-.07.03,1.32-1.17,2.63-1.17,3.95,0l-.07-.07c1.18,1.28,1.17,2.61.13,3.96-1.36,0-2.72,0-4.08,0Z"/>
      <path class="cls-15" d="M140.88,84.01c-.04-1.32-.09-2.64-.13-3.96,3.1-.42,4.47.92,4.09,4.02-1.32-.02-2.64-.04-3.95-.06Z"/>
      <path class="cls-15" d="M152.82,84.08c.22-1.6-.58-4,2.23-3.8,2.33.17,1.55,2.34,1.76,3.8-1.33,0-2.66,0-4,0Z"/>
      <path class="cls-15" d="M160.81,84.08c.22-1.6-.58-4,2.23-3.8,2.33.17,1.55,2.34,1.76,3.8-1.33,0-2.66,0-4,0Z"/>
      <path class="cls-15" d="M340.57,84.08c.22-1.6-.58-4,2.23-3.8,2.33.17,1.55,2.34,1.76,3.8-1.33,0-2.66,0-4,0Z"/>
      <path class="cls-15" d="M348.56,84.08c.22-1.6-.58-4,2.23-3.8,2.33.17,1.55,2.34,1.76,3.8-1.33,0-2.66,0-4,0Z"/>
      <path class="cls-15" d="M360.54,84.08c-.37-3.1.97-4.47,4.09-3.99,1.18,1.35.92,2.66-.14,3.93-1.32.02-2.64.04-3.96.06Z"/>
      <path class="cls-19" d="M364.5,84.01c.05-1.31.09-2.62.14-3.93,0,0-.07.03-.07.03,1.32-1.17,2.63-1.17,3.95,0l-.07-.07c1.18,1.28,1.17,2.61.13,3.96-1.36,0-2.72,0-4.08,0Z"/>
      <path class="cls-15" d="M368.57,84.01c-.04-1.32-.09-2.64-.13-3.96,3.1-.42,4.47.92,4.09,4.02-1.32-.02-2.64-.04-3.95-.06Z"/>
      <path class="cls-15" d="M376.52,84.08c-.37-3.12.98-4.46,4.11-3.99,1.17,1.36.91,2.66-.15,3.93-1.32.02-2.64.04-3.95.06Z"/>
      <path class="cls-19" d="M380.47,84.01c.05-1.31.1-2.62.15-3.93,0,0-.09.04-.09.04,1.3-1.2,2.63-1.15,3.98-.08h-.01c.39,3.06-.99,4.36-4.03,3.98Z"/>
      <path class="cls-15" d="M128.8,84.02c1.37,0,2.74,0,4.11,0-.31,1.55.61,4.02-2.29,3.8-2.44-.18-1.49-2.39-1.82-3.8Z"/>
      <path class="cls-15" d="M156.76,84.02c1.37,0,2.74,0,4.11,0-.31,1.55.61,4.02-2.29,3.8-2.44-.18-1.49-2.39-1.82-3.8Z"/>
      <path class="cls-15" d="M176.73,84.02c3.09-.38,4.44.96,4.05,4.05-3.05.35-4.4-1-4.05-4.05Z"/>
      <path class="cls-19" d="M224.74,84.01c-.05,1.31-.1,2.62-.15,3.93-1.24,0-2.47,0-3.71,0-.79-3.36.88-4.29,3.87-3.93Z"/>
      <path class="cls-19" d="M280.79,87.94c-.05-1.31-.1-2.62-.15-3.93,2.99-.36,4.66.58,3.87,3.93-1.24,0-2.47,0-3.71,0Z"/>
      <path class="cls-15" d="M324.59,88.07c-.38-3.08.97-4.43,4.05-4.05.35,3.05-1,4.4-4.05,4.05Z"/>
      <path class="cls-15" d="M344.51,84.02c1.37,0,2.74,0,4.11,0-.31,1.55.61,4.02-2.29,3.8-2.44-.18-1.49-2.39-1.82-3.8Z"/>
      <path class="cls-15" d="M372.47,84.02c1.37,0,2.74,0,4.11,0-.31,1.55.61,4.02-2.29,3.8-2.44-.18-1.49-2.39-1.82-3.8Z"/>
      <path class="cls-15" d="M228.66,92c3.09-.38,4.44.96,4.05,4.05-3.05.35-4.4-1-4.05-4.05Z"/>
      <path class="cls-15" d="M272.66,96.05c-.38-3.08.97-4.43,4.05-4.05.35,3.05-1,4.4-4.05,4.05Z"/>
      <path class="cls-15" d="M232.66,95.99c1.37,0,2.74,0,4.11,0-.31,1.55.61,4.02-2.29,3.8-2.44-.18-1.49-2.39-1.82-3.8Z"/>
      <path class="cls-15" d="M268.61,95.99c1.37,0,2.74,0,4.11,0-.31,1.55.61,4.02-2.29,3.8-2.44-.18-1.49-2.39-1.82-3.8Z"/>
      <path class="cls-19" d="M200.74,8.16c3.17-.53,4.54.79,4.08,3.98-1.32,0-2.64,0-3.96,0-.04-1.33-.08-2.66-.11-3.99Z"/>
      <path class="cls-19" d="M304.64,8.16c-.04,1.33-.08,2.66-.12,3.99-1.32,0-2.64,0-3.96,0-.46-3.19.91-4.5,4.08-3.98Z"/>
      <path class="cls-18" d="M404.64,12.22c-.06-1.35-.12-2.71-.17-4.06,1.31-.03,2.62-.07,3.94-.1.46,2.93-.67,4.43-3.76,4.16Z"/>
      <path class="cls-15" d="M152.85,16.22c0-1.32,0-2.64,0-3.95,1.35,0,2.71.01,4.06.02.93,1.01,1.16,2.12.48,3.36-.18.16-.37.33-.55.49-1.33.03-2.66.06-3.99.09Z"/>
      <path class="cls-15" d="M196.73,16.19c-.02-1.3-.04-2.6-.06-3.91,1.29-.07,2.59-.13,3.88-.2.82,3.31-.77,4.39-3.82,4.1Z"/>
      <path class="cls-15" d="M236.55,12.13c.04,1.34.08,2.69.12,4.03-1.33,0-2.65-.01-3.98-.02,0,0,.06.06.06.06-1.04-1.27-1.24-2.57-.12-3.91,1.31-.05,2.62-.11,3.93-.16Z"/>
      <path class="cls-15" d="M244.74,16.16c.01-1.35.03-2.7.04-4.05,1.33.06,2.67.12,4,.18,1.12,1.34.92,2.64-.12,3.91,0,0,.06-.06.06-.06-1.33,0-2.65.01-3.98.02Z"/>
      <path class="cls-15" d="M260.59,12.11c.01,1.35.03,2.7.04,4.05-1.33,0-2.65-.01-3.98-.02,0,0,.06.06.06.06-1.04-1.27-1.24-2.57-.12-3.91,1.33-.06,2.67-.12,4-.18Z"/>
      <path class="cls-15" d="M268.71,16.16c.04-1.34.08-2.69.12-4.03,1.31.05,2.62.11,3.93.16,1.12,1.34.92,2.64-.12,3.91,0,0,.06-.06.06-.06-1.33,0-2.65.01-3.98.02Z"/>
      <path class="cls-15" d="M308.7,12.29c-.02,1.3-.04,2.6-.06,3.91-3.05.28-4.64-.79-3.82-4.1,1.29.07,2.59.13,3.88.2Z"/>
      <path class="cls-15" d="M348.47,12.29l4.07-.04c1.09,1.28,1.12,2.58.05,3.89,0,0-.09.09-.09.09-1.32-.03-2.64-.06-3.97-.08-.18-.16-.36-.33-.55-.49-.68-1.24-.45-2.35.48-3.36Z"/>
      <path class="cls-15" d="M120.77,16.27c1.32-.06,2.63-.12,3.95-.18.66,3.22-.76,4.45-3.88,4.03,0,0,.06.06.06.06-1.05-1.27-1.26-2.57-.12-3.91Z"/>
      <path class="cls-15" d="M160.77,20.09c-3.17.53-4.36-.91-3.93-3.96,0,0-.06.06-.06.06,4.05-1.44,4.68-1,4.61,3.23-.21.22-.41.45-.62.67Z"/>
      <path class="cls-15" d="M168.83,20.13c-1.33-.01-2.66-.02-3.99-.04-.21-.23-.41-.45-.62-.68-.74-2.25-.15-4,2.35-4.12,2.76-.13,3.59,1.59,2.84,4.14-.2.23-.4.46-.6.7Z"/>
      <path class="cls-15" d="M180.75,16.13c2.97-.3,4.55.76,3.94,3.99-3.19.52-4.26-1.05-3.94-3.99Z"/>
      <path class="cls-15" d="M192.85,20.12c-.62-3.23.97-4.29,3.94-3.99.32,2.94-.75,4.51-3.94,3.99Z"/>
      <path class="cls-15" d="M308.58,16.13c2.97-.3,4.55.76,3.94,3.99-3.19.52-4.26-1.05-3.94-3.99Z"/>
      <path class="cls-15" d="M320.68,20.12c-.62-3.23.97-4.29,3.94-3.99.32,2.94-.75,4.51-3.94,3.99Z"/>
      <path class="cls-15" d="M340.53,20.09c-1.33.01-2.66.02-3.99.04-.2-.23-.4-.46-.59-.7-.75-2.55.08-4.27,2.84-4.14,2.5.12,3.09,1.87,2.35,4.12-.21.23-.41.45-.62.68Z"/>
      <path class="cls-15" d="M348.53,16.14c.43,3.04-.76,4.49-3.93,3.96-.2-.22-.41-.45-.61-.67-.07-4.22.56-4.67,4.61-3.22l-.06-.06Z"/>
      <path class="cls-15" d="M360.45,16.28c1.39,0,2.78,0,4.18,0,1.13,1.34.92,2.64-.12,3.91,0,0,.06-.06.06-.06-1.35,0-2.7,0-4.05,0,0,0,.06.06.06.06-1.05-1.27-1.26-2.57-.12-3.91Z"/>
      <path class="cls-15" d="M380.66,16.1c1.32.06,2.63.12,3.95.19,1.14,1.34.93,2.64-.12,3.91,0,0,.06-.06.06-.06-3.13.42-4.54-.81-3.88-4.03Z"/>
      <path class="cls-15" d="M108.79,20.27c1.31-.09,2.62-.18,3.94-.28.21.17.43.33.64.5.81,1.37.5,2.58-.53,3.68,0,0,.06-.06.06-.06-3.02.47-4.38-.81-4.11-3.85Z"/>
      <path class="cls-18" d="M164.84,20.09c-.25,1.59.5,3.99-2.26,3.79-2.29-.17-1.56-2.33-1.8-3.79,0,0-.03.04-.03.04,1.38-1.09,2.75-1.09,4.13,0l-.03-.04Z"/>
      <path class="cls-15" d="M172.77,20.13c-.2,1.6.71,4.03-2.21,3.82-2.45-.18-1.52-2.37-1.73-3.82,0,0-.06.06-.06.06,1.35-1.13,2.71-1.13,4.06,0l-.06-.06Z"/>
      <path class="cls-15" d="M336.55,20.13c-.2,1.6.71,4.03-2.21,3.82-2.45-.18-1.52-2.37-1.73-3.82,0,0-.06.06-.06.06,1.35-1.13,2.71-1.13,4.06,0l-.06-.06Z"/>
      <path class="cls-18" d="M344.6,20.09c-.25,1.59.5,3.99-2.26,3.79-2.29-.17-1.56-2.33-1.8-3.79,0,0-.03.04-.03.04,1.38-1.09,2.75-1.09,4.13,0l-.03-.04Z"/>
      <path class="cls-15" d="M392.48,20.18c1.37.03,2.74.06,4.11.1.27,3.04-1.09,4.32-4.11,3.85,0,0,.06.06.06.06-1.04-1.32-1.32-2.65-.06-4Z"/>
      <path class="cls-3" d="M172.83,20.19c-1.35,0-2.71,0-4.06,0-.2-1.59.73-4.02-2.18-3.83-2.47.16-1.56,2.32-1.72,3.78-1.37,0-2.75,0-4.13,0,.54-3.18-.89-4.38-3.96-3.94.04-1.3.08-2.6.12-3.91,5.27,0,10.53,0,15.8,0,.04,2.63.08,5.27.12,7.9Z"/>
      <path class="cls-3" d="M272.63,16.2c.04-1.3.08-2.6.12-3.91,2.6,0,5.2,0,7.81,0,.04,2.63.08,5.27.12,7.9-1.48-.25-3.56.57-3.95-1.79-.43-2.69-2.39-2.13-4.11-2.2Z"/>
      <path class="cls-3" d="M232.62,12.29c.04,1.3.08,2.6.12,3.91-1.72.07-3.68-.49-4.11,2.2-.38,2.37-2.46,1.55-3.95,1.79.04-2.63.08-5.27.12-7.9,2.6,0,5.2,0,7.81,0Z"/>
      <path class="cls-3" d="M256.59,12.29c.04,1.3.08,2.6.12,3.91-2.68,0-5.37,0-8.05,0,.04-1.3.08-2.6.12-3.91,2.6,0,5.2,0,7.81,0Z"/>
      <path class="cls-17" d="M244.62,12.23c-3.08.27-4.35-1.13-3.84-4.16,1.31.03,2.62.06,3.93.09-.03,1.36-.07,2.71-.1,4.07Z"/>
      <path class="cls-1" d="M264.59,8.07c.51,3.03-.75,4.43-3.84,4.16-.03-1.36-.06-2.71-.1-4.07,1.31-.03,2.62-.06,3.93-.09Z"/>
      <path class="cls-3" d="M28.99,40.06c.17,6.93-5.17,2.95-7.97,4.01-.02-1.33-.03-2.66-.05-3.99,2.67,0,5.35-.01,8.02-.02Z"/>
      <path class="cls-3" d="M56.87,36.21c-1.32-.02-2.63-.04-3.95-.06-.03-1.34-.07-2.68-.1-4.03-1.01-1.37-.97-2.66.25-3.89,2.59,0,5.19.01,7.78.02.06,1.27.12,2.53.18,3.8.27,3.04-1.12,4.43-4.16,4.16Z"/>
      <path class="cls-33" d="M53.07,28.24c-.08,1.3-.16,2.59-.25,3.89-1.31-.01-2.61-.02-3.92-.03.02-1.32.03-2.64.05-3.96,1.37.04,2.74.07,4.12.11Z"/>
      <path class="cls-3" d="M45,40.14c-1.35,0-2.71,0-4.06,0-.03-1.34-.06-2.68-.1-4.03-1.01-1.36-.97-2.66.24-3.89,1.26,0,2.53.01,3.79.02.04,2.63.08,5.27.12,7.9Z"/>
      <path class="cls-33" d="M41.08,32.23c-.08,1.3-.16,2.59-.24,3.89-1.3-.03-2.61-.06-3.91-.09.01-1.3.02-2.61.03-3.91l4.11.11Z"/>
      <path class="cls-3" d="M344.63,20.14c-1.38,0-2.75,0-4.13,0-.16-1.46.76-3.62-1.72-3.78-2.91-.19-1.98,2.24-2.18,3.83-1.35,0-2.71,0-4.06,0,.04-2.63.08-5.27.12-7.9,5.27,0,10.53,0,15.8,0,.04,1.3.08,2.6.12,3.91-3.07-.44-4.5.76-3.96,3.94Z"/>
      <path class="cls-33" d="M352.58,16.13c-.02-1.3-.03-2.59-.05-3.89,1.34-.02,2.68-.05,4.01-.08.02,1.3.04,2.61.06,3.91-1.34.02-2.68.03-4.02.05Z"/>
      <path class="cls-3" d="M360.45,16.28c.04,1.3.08,2.6.12,3.91-3.01.35-4.49-.84-4.02-3.98,1.3.03,2.6.05,3.9.08Z"/>
      <path class="cls-3" d="M364.5,20.19c.04-1.3.08-2.6.12-3.91,1.27,0,2.54,0,3.81,0,.62,3.25-1.05,4.19-3.94,3.91Z"/>
      <path class="cls-33" d="M112.73,20c.05-1.28.09-2.56.14-3.84,1.37.04,2.74.07,4.11.11,1.12,1.35.92,2.65-.14,3.92l.06-.06c-1.26,1.05-2.55,1.3-3.92.19l-.26-.32Z"/>
      <path class="cls-3" d="M116.84,20.18c.05-1.31.09-2.62.14-3.92,1.27,0,2.53,0,3.8.01.04,1.3.08,2.61.12,3.91-1.35,0-2.7,0-4.05,0Z"/>
      <path class="cls-15" d="M208.72,48.07c1.31.04,2.62.07,3.93.11-.07,1.55.61,3.71-1.96,3.66-2.52-.05-1.72-2.29-1.97-3.78Z"/>
      <path class="cls-15" d="M292.72,48.19c1.31-.04,2.62-.08,3.93-.11-.25,1.49.55,3.73-1.97,3.78-2.57.05-1.89-2.11-1.96-3.66Z"/>
      <path class="cls-15" d="M124.84,80.12c-1.33-.03-2.65-.06-3.98-.08-.03-1.33-.05-2.65-.08-3.98,3.13-.42,4.48.93,4.06,4.06Z"/>
      <path class="cls-15" d="M140.81,80.12c-1.32,0-2.63,0-3.95,0,.19-1.61-.62-4.03,2.21-3.83,2.35.17,1.55,2.35,1.74,3.83Z"/>
      <path class="cls-15" d="M368.51,80.12c-1.32,0-2.63,0-3.95,0,.19-1.61-.62-4.03,2.21-3.83,2.35.17,1.55,2.35,1.74,3.83Z"/>
      <path class="cls-15" d="M384.52,80.04c-1.33.03-2.65.05-3.98.08-.42-3.12.93-4.48,4.06-4.06-.03,1.33-.05,2.65-.08,3.98Z"/>
      <path class="cls-3" d="M384.48,20.19c.04-1.3.08-2.6.12-3.91,1.27,0,2.53-.02,3.8-.02,1.12.93,1.34,2.06.69,3.35-.18.17-.37.34-.55.52-1.35.02-2.7.04-4.06.06Z"/>
      <path class="cls-3" d="M392.48,20.18c.02,1.33.04,2.67.06,4-3.07.36-4.5-.9-4-4.05,0,0-.06.06-.06.06,1.33-1.1,2.67-1.12,4.01-.02h-.02Z"/>
      <path class="cls-33" d="M392.49,20.16c-1.34,0-2.68.01-4.01.02-.03-1.31-.05-2.62-.08-3.93,1.37-.03,2.74-.06,4.11-.1,0,1.33,0,2.67-.01,4Z"/>
      <path class="cls-3" d="M112.99,20.31c1.31-.06,2.61-.13,3.92-.19.39,3.09-.96,4.45-4.06,4.06.05-1.29.1-2.58.14-3.87Z"/>
    </g>
  </g>
</svg>